<svg xmlns="http://www.w3.org/2000/svg" xmlns:xlink="http://www.w3.org/1999/xlink" width="1123" zoomAndPan="magnify" viewBox="0 0 842.25 1190.249948" height="1587" preserveAspectRatio="xMidYMid meet" version="1.0"><defs><clipPath id="96a5228015"><path d="M 432.621094 148.480469 L 656.074219 148.480469 L 656.074219 297.652344 L 432.621094 297.652344 Z M 432.621094 148.480469 " clip-rule="nonzero"/></clipPath><clipPath id="0388078b39"><path d="M 544 148.480469 L 620 148.480469 L 620 225 L 544 225 Z M 544 148.480469 " clip-rule="nonzero"/></clipPath><clipPath id="0add4c9c69"><path d="M 544 148.480469 L 654 148.480469 L 654 259 L 544 259 Z M 544 148.480469 " clip-rule="nonzero"/></clipPath><clipPath id="a9878644e1"><path d="M 544 148.480469 L 586 148.480469 L 586 190 L 544 190 Z M 544 148.480469 " clip-rule="nonzero"/></clipPath><clipPath id="6f09e39fb1"><path d="M 468 222 L 545 222 L 545 297.652344 L 468 297.652344 Z M 468 222 " clip-rule="nonzero"/></clipPath><clipPath id="282953f5d1"><path d="M 434 188 L 545 188 L 545 297.652344 L 434 297.652344 Z M 434 188 " clip-rule="nonzero"/></clipPath><clipPath id="d12e4fbe81"><path d="M 503 256 L 545 256 L 545 297.652344 L 503 297.652344 Z M 503 256 " clip-rule="nonzero"/></clipPath><clipPath id="13a052abd9"><path d="M 184.851562 445.910156 L 408.304688 445.910156 L 408.304688 594.855469 L 184.851562 594.855469 Z M 184.851562 445.910156 " clip-rule="nonzero"/></clipPath><clipPath id="06b74bc653"><path d="M 296 519 L 373 519 L 373 594.855469 L 296 594.855469 Z M 296 519 " clip-rule="nonzero"/></clipPath><clipPath id="614a335105"><path d="M 296 485 L 407 485 L 407 594.855469 L 296 594.855469 Z M 296 485 " clip-rule="nonzero"/></clipPath><clipPath id="8da570ed92"><path d="M 296 553 L 338 553 L 338 594.855469 L 296 594.855469 Z M 296 553 " clip-rule="nonzero"/></clipPath><clipPath id="b3e5431e58"><path d="M 221 445.910156 L 297 445.910156 L 297 522 L 221 522 Z M 221 445.910156 " clip-rule="nonzero"/></clipPath><clipPath id="2aa87020fb"><path d="M 187 445.910156 L 297 445.910156 L 297 556 L 187 556 Z M 187 445.910156 " clip-rule="nonzero"/></clipPath><clipPath id="20f48e04e9"><path d="M 255 445.910156 L 297 445.910156 L 297 487 L 255 487 Z M 255 445.910156 " clip-rule="nonzero"/></clipPath><clipPath id="c4e67d0019"><path d="M 544.386719 37.445312 L 656.421875 37.445312 L 656.421875 149.484375 L 544.386719 149.484375 Z M 544.386719 37.445312 " clip-rule="nonzero"/></clipPath><clipPath id="f944f8f436"><path d="M 544.386719 73 L 621 73 L 621 149.484375 L 544.386719 149.484375 Z M 544.386719 73 " clip-rule="nonzero"/></clipPath><clipPath id="04b74770cb"><path d="M 544.386719 39 L 655 39 L 655 149.484375 L 544.386719 149.484375 Z M 544.386719 39 " clip-rule="nonzero"/></clipPath><clipPath id="014dfdbf4a"><path d="M 544.386719 108 L 586 108 L 586 149.484375 L 544.386719 149.484375 Z M 544.386719 108 " clip-rule="nonzero"/></clipPath><clipPath id="b984f06d7d"><path d="M 184.769531 334.636719 L 296.601562 334.636719 L 296.601562 446.671875 L 184.769531 446.671875 Z M 184.769531 334.636719 " clip-rule="nonzero"/></clipPath><clipPath id="e256adbde9"><path d="M 220 370 L 296.601562 370 L 296.601562 446.671875 L 220 446.671875 Z M 220 370 " clip-rule="nonzero"/></clipPath><clipPath id="33ad1d391b"><path d="M 186 336 L 296.601562 336 L 296.601562 446.671875 L 186 446.671875 Z M 186 336 " clip-rule="nonzero"/></clipPath><clipPath id="76ac118fd8"><path d="M 255 405 L 296.601562 405 L 296.601562 446.671875 L 255 446.671875 Z M 255 405 " clip-rule="nonzero"/></clipPath><clipPath id="ef96631b60"><path d="M 334.433594 0.15625 L 446.265625 0.15625 L 446.265625 111.988281 L 334.433594 111.988281 Z M 334.433594 0.15625 " clip-rule="nonzero"/></clipPath><clipPath id="d1e99a74a5"><path d="M 370 0.15625 L 446.265625 0.15625 L 446.265625 76 L 370 76 Z M 370 0.15625 " clip-rule="nonzero"/></clipPath><clipPath id="f078f9e52a"><path d="M 336 0.15625 L 446.265625 0.15625 L 446.265625 110 L 336 110 Z M 336 0.15625 " clip-rule="nonzero"/></clipPath><clipPath id="85711d3657"><path d="M 404 0.15625 L 446.265625 0.15625 L 446.265625 42 L 404 42 Z M 404 0.15625 " clip-rule="nonzero"/></clipPath><clipPath id="2da05320e6"><path d="M 395.375 297.125 L 507.414062 297.125 L 507.414062 408.988281 L 395.375 408.988281 Z M 395.375 297.125 " clip-rule="nonzero"/></clipPath><clipPath id="a37533b2df"><path d="M 395.375 297.125 L 472 297.125 L 472 373 L 395.375 373 Z M 395.375 297.125 " clip-rule="nonzero"/></clipPath><clipPath id="fa09157d92"><path d="M 395.375 297.125 L 506 297.125 L 506 407 L 395.375 407 Z M 395.375 297.125 " clip-rule="nonzero"/></clipPath><clipPath id="01b164477d"><path d="M 395.375 297.125 L 437 297.125 L 437 339 L 395.375 339 Z M 395.375 297.125 " clip-rule="nonzero"/></clipPath><clipPath id="ef4bc44baa"><path d="M 333.691406 594.484375 L 445.550781 594.484375 L 445.550781 706.34375 L 333.691406 706.34375 Z M 333.691406 594.484375 " clip-rule="nonzero"/></clipPath><clipPath id="892fcd68fa"><path d="M 369 594.484375 L 445.550781 594.484375 L 445.550781 671 L 369 671 Z M 369 594.484375 " clip-rule="nonzero"/></clipPath><clipPath id="dc5cf4300b"><path d="M 335 594.484375 L 445.550781 594.484375 L 445.550781 705 L 335 705 Z M 335 594.484375 " clip-rule="nonzero"/></clipPath><clipPath id="b324cb130c"><path d="M 404 594.484375 L 445.550781 594.484375 L 445.550781 636 L 404 636 Z M 404 594.484375 " clip-rule="nonzero"/></clipPath><clipPath id="fd61a340c7"><path d="M 296.25 334.632812 L 395.90625 334.632812 L 395.90625 408.910156 L 296.25 408.910156 Z M 296.25 334.632812 " clip-rule="nonzero"/></clipPath><clipPath id="044c56d165"><path d="M 296.25 370 L 395.90625 370 L 395.90625 373 L 296.25 373 Z M 296.25 370 " clip-rule="nonzero"/></clipPath><clipPath id="1ecd020f3f"><path d="M 296.25 336 L 395.90625 336 L 395.90625 339 L 296.25 339 Z M 296.25 336 " clip-rule="nonzero"/></clipPath><clipPath id="eaadf83193"><path d="M 296.25 404 L 395.90625 404 L 395.90625 407 L 296.25 407 Z M 296.25 404 " clip-rule="nonzero"/></clipPath><clipPath id="889174eff5"><path d="M 445.28125 631.925781 L 544.9375 631.925781 L 544.9375 706.203125 L 445.28125 706.203125 Z M 445.28125 631.925781 " clip-rule="nonzero"/></clipPath><clipPath id="2155ad7e96"><path d="M 445.28125 668 L 544.9375 668 L 544.9375 671 L 445.28125 671 Z M 445.28125 668 " clip-rule="nonzero"/></clipPath><clipPath id="3e95c4fb63"><path d="M 445.28125 634 L 544.9375 634 L 544.9375 636 L 445.28125 636 Z M 445.28125 634 " clip-rule="nonzero"/></clipPath><clipPath id="4737152749"><path d="M 445.28125 702 L 544.9375 702 L 544.9375 704 L 445.28125 704 Z M 445.28125 702 " clip-rule="nonzero"/></clipPath><clipPath id="c8d4e02691"><path d="M 445.628906 37.570312 L 545.285156 37.570312 L 545.285156 111.847656 L 445.628906 111.847656 Z M 445.628906 37.570312 " clip-rule="nonzero"/></clipPath><clipPath id="a9b0dd656c"><path d="M 445.628906 73 L 545.285156 73 L 545.285156 76 L 445.628906 76 Z M 445.628906 73 " clip-rule="nonzero"/></clipPath><clipPath id="096b52da65"><path d="M 445.628906 39 L 545.285156 39 L 545.285156 42 L 445.628906 42 Z M 445.628906 39 " clip-rule="nonzero"/></clipPath><clipPath id="98fb8872e6"><path d="M 445.628906 107 L 545.285156 107 L 545.285156 110 L 445.628906 110 Z M 445.628906 107 " clip-rule="nonzero"/></clipPath><clipPath id="224e37d600"><path d="M 432.621094 742.960938 L 656.074219 742.960938 L 656.074219 892.136719 L 432.621094 892.136719 Z M 432.621094 742.960938 " clip-rule="nonzero"/></clipPath><clipPath id="b733008490"><path d="M 544 742.960938 L 620 742.960938 L 620 819 L 544 819 Z M 544 742.960938 " clip-rule="nonzero"/></clipPath><clipPath id="83af54195f"><path d="M 544 742.960938 L 654 742.960938 L 654 853 L 544 853 Z M 544 742.960938 " clip-rule="nonzero"/></clipPath><clipPath id="ac75a33e4c"><path d="M 544 742.960938 L 586 742.960938 L 586 785 L 544 785 Z M 544 742.960938 " clip-rule="nonzero"/></clipPath><clipPath id="b4907f3a70"><path d="M 468 816 L 545 816 L 545 892.136719 L 468 892.136719 Z M 468 816 " clip-rule="nonzero"/></clipPath><clipPath id="8a7a437236"><path d="M 434 782 L 545 782 L 545 892.136719 L 434 892.136719 Z M 434 782 " clip-rule="nonzero"/></clipPath><clipPath id="8c3b5cb186"><path d="M 503 850 L 545 850 L 545 892.136719 L 503 892.136719 Z M 503 850 " clip-rule="nonzero"/></clipPath><clipPath id="b29896543b"><path d="M 184.808594 1040.394531 L 408.261719 1040.394531 L 408.261719 1189.335938 L 184.808594 1189.335938 Z M 184.808594 1040.394531 " clip-rule="nonzero"/></clipPath><clipPath id="ce6ad3725c"><path d="M 296 1113 L 373 1113 L 373 1189.335938 L 296 1189.335938 Z M 296 1113 " clip-rule="nonzero"/></clipPath><clipPath id="56d07c451c"><path d="M 296 1079 L 406 1079 L 406 1189.335938 L 296 1189.335938 Z M 296 1079 " clip-rule="nonzero"/></clipPath><clipPath id="609dc1c072"><path d="M 296 1148 L 338 1148 L 338 1189.335938 L 296 1189.335938 Z M 296 1148 " clip-rule="nonzero"/></clipPath><clipPath id="d339a7cfea"><path d="M 221 1040.394531 L 297 1040.394531 L 297 1116 L 221 1116 Z M 221 1040.394531 " clip-rule="nonzero"/></clipPath><clipPath id="faaea1c596"><path d="M 187 1040.394531 L 297 1040.394531 L 297 1150 L 187 1150 Z M 187 1040.394531 " clip-rule="nonzero"/></clipPath><clipPath id="9650153f5a"><path d="M 255 1040.394531 L 297 1040.394531 L 297 1082 L 255 1082 Z M 255 1040.394531 " clip-rule="nonzero"/></clipPath><clipPath id="9ed1ba6332"><path d="M 544.386719 631.929688 L 656.421875 631.929688 L 656.421875 743.964844 L 544.386719 743.964844 Z M 544.386719 631.929688 " clip-rule="nonzero"/></clipPath><clipPath id="83c59ac505"><path d="M 544.386719 668 L 621 668 L 621 743.964844 L 544.386719 743.964844 Z M 544.386719 668 " clip-rule="nonzero"/></clipPath><clipPath id="f815d3337a"><path d="M 544.386719 634 L 655 634 L 655 743.964844 L 544.386719 743.964844 Z M 544.386719 634 " clip-rule="nonzero"/></clipPath><clipPath id="6ae3e6c1bc"><path d="M 544.386719 702 L 586 702 L 586 743.964844 L 544.386719 743.964844 Z M 544.386719 702 " clip-rule="nonzero"/></clipPath><clipPath id="14a2c255dd"><path d="M 184.722656 929.121094 L 296.558594 929.121094 L 296.558594 1041.15625 L 184.722656 1041.15625 Z M 184.722656 929.121094 " clip-rule="nonzero"/></clipPath><clipPath id="dc21af17a8"><path d="M 220 965 L 296.558594 965 L 296.558594 1041.15625 L 220 1041.15625 Z M 220 965 " clip-rule="nonzero"/></clipPath><clipPath id="c8b7ae6176"><path d="M 186 931 L 296.558594 931 L 296.558594 1041.15625 L 186 1041.15625 Z M 186 931 " clip-rule="nonzero"/></clipPath><clipPath id="09a380c0f8"><path d="M 255 999 L 296.558594 999 L 296.558594 1041.15625 L 255 1041.15625 Z M 255 999 " clip-rule="nonzero"/></clipPath><clipPath id="7b7f317e22"><path d="M 395.332031 891.609375 L 507.367188 891.609375 L 507.367188 1003.472656 L 395.332031 1003.472656 Z M 395.332031 891.609375 " clip-rule="nonzero"/></clipPath><clipPath id="ffa5d9ab5f"><path d="M 395.332031 891.609375 L 472 891.609375 L 472 968 L 395.332031 968 Z M 395.332031 891.609375 " clip-rule="nonzero"/></clipPath><clipPath id="da0d3dac9b"><path d="M 395.332031 891.609375 L 506 891.609375 L 506 1002 L 395.332031 1002 Z M 395.332031 891.609375 " clip-rule="nonzero"/></clipPath><clipPath id="7cc96221eb"><path d="M 395.332031 891.609375 L 437 891.609375 L 437 933 L 395.332031 933 Z M 395.332031 891.609375 " clip-rule="nonzero"/></clipPath><clipPath id="6ad6ca2d64"><path d="M 296.207031 929.117188 L 395.863281 929.117188 L 395.863281 1003.394531 L 296.207031 1003.394531 Z M 296.207031 929.117188 " clip-rule="nonzero"/></clipPath><clipPath id="bda1541cb2"><path d="M 296.207031 965 L 395.863281 965 L 395.863281 968 L 296.207031 968 Z M 296.207031 965 " clip-rule="nonzero"/></clipPath><clipPath id="d11a7654d0"><path d="M 296.207031 931 L 395.863281 931 L 395.863281 934 L 296.207031 934 Z M 296.207031 931 " clip-rule="nonzero"/></clipPath><clipPath id="bdd21ad38c"><path d="M 296.207031 999 L 395.863281 999 L 395.863281 1002 L 296.207031 1002 Z M 296.207031 999 " clip-rule="nonzero"/></clipPath><clipPath id="867626a962"><path d="M 290.8125 366.132812 L 301.164062 366.132812 L 301.164062 376.488281 L 290.8125 376.488281 Z M 290.8125 366.132812 " clip-rule="nonzero"/></clipPath><clipPath id="fc7043c571"><path d="M 295.988281 366.132812 C 293.128906 366.132812 290.8125 368.453125 290.8125 371.3125 C 290.8125 374.167969 293.128906 376.488281 295.988281 376.488281 C 298.847656 376.488281 301.164062 374.167969 301.164062 371.3125 C 301.164062 368.453125 298.847656 366.132812 295.988281 366.132812 Z M 295.988281 366.132812 " clip-rule="nonzero"/></clipPath><clipPath id="2835b5ac87"><path d="M 439.410156 69.664062 L 449.761719 69.664062 L 449.761719 80.019531 L 439.410156 80.019531 Z M 439.410156 69.664062 " clip-rule="nonzero"/></clipPath><clipPath id="cfc15034f8"><path d="M 444.585938 69.664062 C 441.726562 69.664062 439.410156 71.984375 439.410156 74.839844 C 439.410156 77.699219 441.726562 80.019531 444.585938 80.019531 C 447.445312 80.019531 449.761719 77.699219 449.761719 74.839844 C 449.761719 71.984375 447.445312 69.664062 444.585938 69.664062 Z M 444.585938 69.664062 " clip-rule="nonzero"/></clipPath><clipPath id="058c5128bf"><path d="M 390.769531 366.132812 L 401.121094 366.132812 L 401.121094 376.488281 L 390.769531 376.488281 Z M 390.769531 366.132812 " clip-rule="nonzero"/></clipPath><clipPath id="b7d9610b2b"><path d="M 395.945312 366.132812 C 393.085938 366.132812 390.769531 368.453125 390.769531 371.3125 C 390.769531 374.167969 393.085938 376.488281 395.945312 376.488281 C 398.804688 376.488281 401.121094 374.167969 401.121094 371.3125 C 401.121094 368.453125 398.804688 366.132812 395.945312 366.132812 Z M 395.945312 366.132812 " clip-rule="nonzero"/></clipPath><clipPath id="386609715e"><path d="M 539.367188 69.664062 L 549.71875 69.664062 L 549.71875 80.019531 L 539.367188 80.019531 Z M 539.367188 69.664062 " clip-rule="nonzero"/></clipPath><clipPath id="a2890cc525"><path d="M 544.542969 69.664062 C 541.683594 69.664062 539.367188 71.984375 539.367188 74.839844 C 539.367188 77.699219 541.683594 80.019531 544.542969 80.019531 C 547.402344 80.019531 549.71875 77.699219 549.71875 74.839844 C 549.71875 71.984375 547.402344 69.664062 544.542969 69.664062 Z M 544.542969 69.664062 " clip-rule="nonzero"/></clipPath><clipPath id="3d42edefc5"><path d="M 340.789062 366.132812 L 351.144531 366.132812 L 351.144531 376.488281 L 340.789062 376.488281 Z M 340.789062 366.132812 " clip-rule="nonzero"/></clipPath><clipPath id="231f7bbb1b"><path d="M 345.964844 366.132812 C 343.105469 366.132812 340.789062 368.453125 340.789062 371.3125 C 340.789062 374.167969 343.105469 376.488281 345.964844 376.488281 C 348.824219 376.488281 351.144531 374.167969 351.144531 371.3125 C 351.144531 368.453125 348.824219 366.132812 345.964844 366.132812 Z M 345.964844 366.132812 " clip-rule="nonzero"/></clipPath><clipPath id="4a2e54e0bd"><path d="M 489.386719 69.664062 L 499.742188 69.664062 L 499.742188 80.019531 L 489.386719 80.019531 Z M 489.386719 69.664062 " clip-rule="nonzero"/></clipPath><clipPath id="88f2b8b6b1"><path d="M 494.5625 69.664062 C 491.707031 69.664062 489.386719 71.984375 489.386719 74.839844 C 489.386719 77.699219 491.707031 80.019531 494.5625 80.019531 C 497.421875 80.019531 499.742188 77.699219 499.742188 74.839844 C 499.742188 71.984375 497.421875 69.664062 494.5625 69.664062 Z M 494.5625 69.664062 " clip-rule="nonzero"/></clipPath><clipPath id="82d7a06fdd"><path d="M 290.882812 960.871094 L 301.234375 960.871094 L 301.234375 971.222656 L 290.882812 971.222656 Z M 290.882812 960.871094 " clip-rule="nonzero"/></clipPath><clipPath id="0c3ba9468e"><path d="M 296.058594 960.871094 C 293.199219 960.871094 290.882812 963.1875 290.882812 966.046875 C 290.882812 968.90625 293.199219 971.222656 296.058594 971.222656 C 298.917969 971.222656 301.234375 968.90625 301.234375 966.046875 C 301.234375 963.1875 298.917969 960.871094 296.058594 960.871094 Z M 296.058594 960.871094 " clip-rule="nonzero"/></clipPath><clipPath id="cfe395cb5d"><path d="M 390.839844 960.625 L 401.191406 960.625 L 401.191406 970.976562 L 390.839844 970.976562 Z M 390.839844 960.625 " clip-rule="nonzero"/></clipPath><clipPath id="ba2c38d88c"><path d="M 396.015625 960.625 C 393.15625 960.625 390.839844 962.941406 390.839844 965.800781 C 390.839844 968.660156 393.15625 970.976562 396.015625 970.976562 C 398.875 970.976562 401.191406 968.660156 401.191406 965.800781 C 401.191406 962.941406 398.875 960.625 396.015625 960.625 Z M 396.015625 960.625 " clip-rule="nonzero"/></clipPath><clipPath id="e57061d844"><path d="M 340.863281 960.871094 L 351.214844 960.871094 L 351.214844 971.222656 L 340.863281 971.222656 Z M 340.863281 960.871094 " clip-rule="nonzero"/></clipPath><clipPath id="c926b57b27"><path d="M 346.039062 960.871094 C 343.179688 960.871094 340.863281 963.1875 340.863281 966.046875 C 340.863281 968.90625 343.179688 971.222656 346.039062 971.222656 C 348.898438 971.222656 351.214844 968.90625 351.214844 966.046875 C 351.214844 963.1875 348.898438 960.871094 346.039062 960.871094 Z M 346.039062 960.871094 " clip-rule="nonzero"/></clipPath><clipPath id="b7b7599cd9"><path d="M 439.523438 663.710938 L 449.878906 663.710938 L 449.878906 674.0625 L 439.523438 674.0625 Z M 439.523438 663.710938 " clip-rule="nonzero"/></clipPath><clipPath id="b2e72fbdc5"><path d="M 444.703125 663.710938 C 441.84375 663.710938 439.523438 666.027344 439.523438 668.886719 C 439.523438 671.746094 441.84375 674.0625 444.703125 674.0625 C 447.558594 674.0625 449.878906 671.746094 449.878906 668.886719 C 449.878906 666.027344 447.558594 663.710938 444.703125 663.710938 Z M 444.703125 663.710938 " clip-rule="nonzero"/></clipPath><clipPath id="45423004d9"><path d="M 539.484375 663.710938 L 549.835938 663.710938 L 549.835938 674.0625 L 539.484375 674.0625 Z M 539.484375 663.710938 " clip-rule="nonzero"/></clipPath><clipPath id="be92cb8fc5"><path d="M 544.660156 663.710938 C 541.800781 663.710938 539.484375 666.027344 539.484375 668.886719 C 539.484375 671.746094 541.800781 674.0625 544.660156 674.0625 C 547.519531 674.0625 549.835938 671.746094 549.835938 668.886719 C 549.835938 666.027344 547.519531 663.710938 544.660156 663.710938 Z M 544.660156 663.710938 " clip-rule="nonzero"/></clipPath><clipPath id="f91ef3b41e"><path d="M 489.503906 663.710938 L 499.855469 663.710938 L 499.855469 674.0625 L 489.503906 674.0625 Z M 489.503906 663.710938 " clip-rule="nonzero"/></clipPath><clipPath id="d9233e0805"><path d="M 494.679688 663.710938 C 491.820312 663.710938 489.503906 666.027344 489.503906 668.886719 C 489.503906 671.746094 491.820312 674.0625 494.679688 674.0625 C 497.539062 674.0625 499.855469 671.746094 499.855469 668.886719 C 499.855469 666.027344 497.539062 663.710938 494.679688 663.710938 Z M 494.679688 663.710938 " clip-rule="nonzero"/></clipPath></defs><g clip-path="url(#96a5228015)"><path fill="#525252" d="M 509.945312 283.421875 C 511.792969 278.941406 514.558594 274.789062 518.027344 271.3125 C 521.5 267.835938 525.640625 265.0625 530.113281 263.210938 C 534.589844 261.355469 539.375 260.398438 544.347656 260.386719 C 551.605469 260.378906 558.914062 259.671875 566.09375 258.246094 C 573.277344 256.824219 580.328125 254.683594 587.09375 251.871094 C 600.632812 246.253906 612.992188 237.949219 623.304688 227.613281 C 633.617188 217.277344 641.90625 204.898438 647.515625 191.328125 C 650.320312 184.550781 652.457031 177.484375 653.878906 170.285156 C 655.300781 163.089844 656.003906 155.765625 656.011719 148.492188 L 581.566406 148.492188 C 581.554688 153.476562 580.601562 158.269531 578.746094 162.757812 C 576.898438 167.234375 574.132812 171.390625 570.664062 174.867188 C 567.195312 178.34375 563.050781 181.113281 558.578125 182.964844 C 554.101562 184.824219 549.320312 185.777344 544.347656 185.792969 C 537.085938 185.796875 529.777344 186.503906 522.597656 187.929688 C 515.414062 189.355469 508.363281 191.496094 501.597656 194.304688 C 488.058594 199.921875 475.699219 208.226562 465.386719 218.5625 C 455.074219 228.898438 446.785156 241.28125 441.175781 254.847656 C 438.371094 261.628906 436.238281 268.695312 434.816406 275.890625 C 433.390625 283.085938 432.6875 290.410156 432.679688 297.683594 L 507.125 297.683594 C 507.136719 292.703125 508.089844 287.90625 509.945312 283.421875 " fill-opacity="1" fill-rule="nonzero"/></g><g clip-path="url(#0388078b39)"><path fill="#f7f7f7" d="M 596.253906 200.507812 C 589.457031 207.316406 581.320312 212.777344 572.441406 216.460938 C 563.566406 220.15625 553.960938 222.046875 544.347656 222.050781 L 544.347656 224.125 C 554.226562 224.121094 564.105469 222.175781 573.230469 218.375 C 582.363281 214.589844 590.730469 208.972656 597.714844 201.972656 C 604.703125 194.972656 610.308594 186.589844 614.085938 177.441406 C 617.878906 168.292969 619.820312 158.390625 619.824219 148.492188 L 617.753906 148.492188 C 617.75 158.125 615.863281 167.753906 612.175781 176.648438 C 608.5 185.542969 603.050781 193.695312 596.253906 200.507812 " fill-opacity="1" fill-rule="nonzero"/></g><g clip-path="url(#0add4c9c69)"><path fill="#f7f7f7" d="M 643.851562 189.808594 C 638.445312 202.890625 630.453125 214.835938 620.503906 224.804688 C 610.554688 234.773438 598.632812 242.785156 585.578125 248.203125 C 579.050781 250.914062 572.25 252.976562 565.324219 254.351562 C 558.398438 255.726562 551.347656 256.410156 544.347656 256.414062 L 544.347656 258.140625 C 551.460938 258.136719 558.625 257.445312 565.660156 256.042969 C 572.695312 254.648438 579.609375 252.554688 586.234375 249.796875 C 599.503906 244.292969 611.613281 236.15625 621.722656 226.027344 C 631.828125 215.898438 639.949219 203.765625 645.445312 190.46875 C 648.191406 183.828125 650.285156 176.902344 651.679688 169.851562 C 653.074219 162.800781 653.765625 155.625 653.769531 148.492188 L 652.046875 148.492188 C 652.042969 155.511719 651.359375 162.574219 649.988281 169.515625 C 648.617188 176.457031 646.558594 183.269531 643.851562 189.808594 " fill-opacity="1" fill-rule="nonzero"/></g><g clip-path="url(#a9878644e1)"><path fill="#f7f7f7" d="M 544.347656 189.761719 C 549.824219 189.75 555.140625 188.695312 560.097656 186.632812 C 565.050781 184.582031 569.632812 181.515625 573.46875 177.675781 C 577.300781 173.832031 580.359375 169.242188 582.410156 164.277344 C 584.464844 159.308594 585.519531 153.984375 585.53125 148.492188 L 583.808594 148.492188 C 583.796875 153.761719 582.785156 158.859375 580.816406 163.617188 C 578.855469 168.367188 575.925781 172.769531 572.25 176.453125 C 568.570312 180.136719 564.179688 183.074219 559.4375 185.039062 C 554.6875 187.011719 549.605469 188.023438 544.347656 188.035156 L 544.347656 189.761719 " fill-opacity="1" fill-rule="nonzero"/></g><g clip-path="url(#6f09e39fb1)"><path fill="#f7f7f7" d="M 492.4375 245.671875 C 499.234375 238.859375 507.371094 233.398438 516.25 229.71875 C 525.125 226.019531 534.730469 224.128906 544.347656 224.125 L 544.347656 222.050781 C 534.46875 222.054688 524.585938 224 515.457031 227.800781 C 506.328125 231.589844 497.960938 237.203125 490.976562 244.207031 C 483.988281 251.207031 478.386719 259.589844 474.605469 268.738281 C 470.8125 277.882812 468.871094 287.785156 468.867188 297.683594 L 470.9375 297.683594 C 470.941406 288.050781 472.828125 278.425781 476.515625 269.53125 C 480.191406 260.632812 485.640625 252.480469 492.4375 245.671875 " fill-opacity="1" fill-rule="nonzero"/></g><g clip-path="url(#282953f5d1)"><path fill="#f7f7f7" d="M 444.839844 256.371094 C 450.246094 243.285156 458.238281 231.339844 468.1875 221.371094 C 478.136719 211.402344 490.058594 203.390625 503.113281 197.972656 C 509.640625 195.261719 516.441406 193.199219 523.367188 191.824219 C 530.292969 190.453125 537.34375 189.769531 544.347656 189.761719 L 544.347656 188.035156 C 537.230469 188.042969 530.070312 188.734375 523.03125 190.132812 C 515.996094 191.527344 509.085938 193.625 502.457031 196.378906 C 489.1875 201.882812 477.078125 210.023438 466.96875 220.152344 C 456.863281 230.277344 448.742188 242.414062 443.246094 255.710938 C 440.5 262.351562 438.40625 269.273438 437.011719 276.328125 C 435.617188 283.378906 434.925781 290.554688 434.921875 297.683594 L 436.644531 297.683594 C 436.648438 290.664062 437.332031 283.601562 438.703125 276.664062 C 440.074219 269.722656 442.132812 262.90625 444.839844 256.371094 " fill-opacity="1" fill-rule="nonzero"/></g><g clip-path="url(#d12e4fbe81)"><path fill="#f7f7f7" d="M 507.875 282.5625 C 509.835938 277.808594 512.765625 273.40625 516.441406 269.722656 C 520.121094 266.042969 524.511719 263.101562 529.253906 261.136719 C 534.003906 259.167969 539.085938 258.15625 544.347656 258.140625 L 544.347656 256.414062 C 538.867188 256.425781 533.550781 257.484375 528.59375 259.542969 C 523.640625 261.59375 519.058594 264.664062 515.222656 268.5 C 511.390625 272.347656 508.332031 276.9375 506.28125 281.902344 C 504.226562 286.871094 503.171875 292.191406 503.160156 297.683594 L 504.882812 297.683594 C 504.898438 292.414062 505.90625 287.320312 507.875 282.5625 " fill-opacity="1" fill-rule="nonzero"/></g><g clip-path="url(#13a052abd9)"><path fill="#525252" d="M 262.179688 459.910156 C 264.027344 464.390625 266.792969 468.546875 270.261719 472.023438 C 273.730469 475.5 277.875 478.269531 282.347656 480.121094 C 286.824219 481.980469 291.605469 482.933594 296.578125 482.949219 C 303.839844 482.953125 311.148438 483.660156 318.328125 485.085938 C 325.511719 486.511719 332.5625 488.652344 339.328125 491.460938 C 352.867188 497.078125 365.226562 505.382812 375.539062 515.71875 C 385.851562 526.054688 394.140625 538.4375 399.746094 552.003906 C 402.554688 558.78125 404.6875 565.851562 406.109375 573.046875 C 407.53125 580.242188 408.238281 587.566406 408.246094 594.839844 L 333.800781 594.839844 C 333.789062 589.859375 332.835938 585.0625 330.980469 580.578125 C 329.132812 576.097656 326.367188 571.945312 322.898438 568.46875 C 319.425781 564.992188 315.285156 562.21875 310.8125 560.367188 C 306.335938 558.511719 301.550781 557.554688 296.578125 557.542969 C 289.320312 557.535156 282.011719 556.828125 274.832031 555.402344 C 267.648438 553.980469 260.597656 551.839844 253.832031 549.027344 C 240.292969 543.410156 227.933594 535.105469 217.621094 524.769531 C 207.308594 514.4375 199.019531 502.054688 193.410156 488.484375 C 190.605469 481.707031 188.46875 474.640625 187.046875 467.441406 C 185.625 460.246094 184.921875 452.921875 184.914062 445.648438 L 259.359375 445.648438 C 259.371094 450.632812 260.324219 455.425781 262.179688 459.910156 " fill-opacity="1" fill-rule="nonzero"/></g><g clip-path="url(#06b74bc653)"><path fill="#f7f7f7" d="M 348.488281 542.824219 C 341.691406 536.015625 333.554688 530.554688 324.675781 526.871094 C 315.800781 523.175781 306.195312 521.285156 296.578125 521.28125 L 296.578125 519.207031 C 306.457031 519.210938 316.339844 521.15625 325.464844 524.957031 C 334.597656 528.746094 342.960938 534.359375 349.949219 541.359375 C 356.9375 548.359375 362.539062 556.746094 366.320312 565.894531 C 370.113281 575.039062 372.054688 584.941406 372.058594 594.839844 L 369.988281 594.839844 C 369.984375 585.207031 368.097656 575.582031 364.410156 566.6875 C 360.734375 557.789062 355.285156 549.636719 348.488281 542.824219 " fill-opacity="1" fill-rule="nonzero"/></g><g clip-path="url(#614a335105)"><path fill="#f7f7f7" d="M 396.085938 553.527344 C 390.679688 540.441406 382.6875 528.496094 372.738281 518.527344 C 362.789062 508.558594 350.867188 500.546875 337.808594 495.128906 C 331.285156 492.417969 324.484375 490.355469 317.558594 488.980469 C 310.632812 487.605469 303.582031 486.921875 296.578125 486.917969 L 296.578125 485.191406 C 303.695312 485.199219 310.855469 485.890625 317.894531 487.289062 C 324.929688 488.683594 331.839844 490.78125 338.46875 493.535156 C 351.738281 499.039062 363.847656 507.179688 373.957031 517.308594 C 384.0625 527.433594 392.183594 539.570312 397.679688 552.863281 C 400.425781 559.507812 402.519531 566.429688 403.914062 573.484375 C 405.308594 580.535156 406 587.710938 406.003906 594.839844 L 404.28125 594.839844 C 404.277344 587.820312 403.59375 580.757812 402.222656 573.820312 C 400.851562 566.878906 398.792969 560.0625 396.085938 553.527344 " fill-opacity="1" fill-rule="nonzero"/></g><g clip-path="url(#8da570ed92)"><path fill="#f7f7f7" d="M 296.578125 553.570312 C 302.058594 553.582031 307.371094 554.640625 312.332031 556.699219 C 317.285156 558.75 321.867188 561.816406 325.703125 565.660156 C 329.535156 569.5 332.59375 574.09375 334.644531 579.054688 C 336.699219 584.023438 337.753906 589.347656 337.765625 594.839844 L 336.042969 594.839844 C 336.027344 589.570312 335.019531 584.476562 333.050781 579.71875 C 331.089844 574.964844 328.160156 570.5625 324.484375 566.878906 C 320.804688 563.199219 316.414062 560.257812 311.671875 558.292969 C 306.921875 556.324219 301.839844 555.3125 296.578125 555.296875 L 296.578125 553.570312 " fill-opacity="1" fill-rule="nonzero"/></g><g clip-path="url(#b3e5431e58)"><path fill="#f7f7f7" d="M 244.671875 497.664062 C 251.46875 504.472656 259.605469 509.933594 268.484375 513.617188 C 277.359375 517.3125 286.964844 519.203125 296.578125 519.207031 L 296.578125 521.28125 C 286.699219 521.277344 276.820312 519.332031 267.691406 515.53125 C 258.5625 511.746094 250.195312 506.128906 243.210938 499.128906 C 236.222656 492.128906 230.617188 483.746094 226.839844 474.597656 C 223.046875 465.449219 221.105469 455.546875 221.101562 445.648438 L 223.171875 445.648438 C 223.175781 455.28125 225.0625 464.910156 228.75 473.800781 C 232.425781 482.699219 237.875 490.851562 244.671875 497.664062 " fill-opacity="1" fill-rule="nonzero"/></g><g clip-path="url(#2aa87020fb)"><path fill="#f7f7f7" d="M 197.074219 486.964844 C 202.480469 500.046875 210.472656 511.992188 220.421875 521.960938 C 230.371094 531.933594 242.292969 539.941406 255.347656 545.359375 C 261.875 548.070312 268.675781 550.132812 275.601562 551.507812 C 282.527344 552.882812 289.578125 553.566406 296.578125 553.570312 L 296.578125 555.296875 C 289.464844 555.292969 282.300781 554.597656 275.265625 553.199219 C 268.230469 551.804688 261.316406 549.710938 254.691406 546.953125 C 241.421875 541.449219 229.3125 533.3125 219.203125 523.183594 C 209.097656 513.054688 200.976562 500.921875 195.480469 487.625 C 192.734375 480.984375 190.640625 474.058594 189.246094 467.007812 C 187.851562 459.957031 187.160156 452.777344 187.15625 445.648438 L 188.878906 445.648438 C 188.882812 452.667969 189.566406 459.730469 190.9375 466.671875 C 192.308594 473.613281 194.367188 480.425781 197.074219 486.964844 " fill-opacity="1" fill-rule="nonzero"/></g><g clip-path="url(#20f48e04e9)"><path fill="#f7f7f7" d="M 260.109375 460.773438 C 262.070312 465.523438 265 469.925781 268.675781 473.609375 C 272.355469 477.292969 276.746094 480.230469 281.488281 482.195312 C 286.238281 484.167969 291.320312 485.179688 296.578125 485.191406 L 296.578125 486.917969 C 291.097656 486.90625 285.785156 485.851562 280.828125 483.789062 C 275.875 481.738281 271.292969 478.671875 267.457031 474.832031 C 263.625 470.988281 260.5625 466.394531 258.515625 461.433594 C 256.460938 456.464844 255.40625 451.140625 255.394531 445.648438 L 257.117188 445.648438 C 257.128906 450.917969 258.140625 456.011719 260.109375 460.773438 " fill-opacity="1" fill-rule="nonzero"/></g><g clip-path="url(#c4e67d0019)"><path fill="#525252" d="M 581.730469 149.484375 C 581.71875 144.496094 580.761719 139.695312 578.902344 135.203125 C 577.046875 130.71875 574.273438 126.558594 570.792969 123.074219 C 567.308594 119.597656 563.152344 116.820312 558.667969 114.96875 C 554.175781 113.105469 549.375 112.152344 544.386719 112.136719 L 544.386719 37.445312 C 551.667969 37.453125 559 38.160156 566.207031 39.589844 C 573.410156 41.015625 580.488281 43.15625 587.277344 45.972656 C 600.863281 51.597656 613.261719 59.914062 623.605469 70.261719 C 633.957031 80.609375 642.269531 93.007812 647.894531 106.59375 C 650.710938 113.378906 652.855469 120.457031 654.28125 127.664062 C 655.707031 134.867188 656.417969 142.199219 656.421875 149.484375 L 581.730469 149.484375 " fill-opacity="1" fill-rule="nonzero"/></g><g clip-path="url(#f944f8f436)"><path fill="#f7f7f7" d="M 597.933594 95.933594 C 590.921875 88.925781 582.53125 83.304688 573.367188 79.511719 C 564.210938 75.707031 554.296875 73.757812 544.386719 73.753906 L 544.386719 75.828125 C 554.03125 75.832031 563.667969 77.726562 572.574219 81.429688 C 581.484375 85.113281 589.644531 90.582031 596.464844 97.402344 C 603.285156 104.222656 608.753906 112.386719 612.441406 121.292969 C 616.140625 130.199219 618.035156 139.839844 618.039062 149.484375 L 620.113281 149.484375 C 620.109375 139.570312 618.164062 129.65625 614.355469 120.5 C 610.566406 111.339844 604.941406 102.945312 597.933594 95.933594 " fill-opacity="1" fill-rule="nonzero"/></g><g clip-path="url(#04b74770cb)"><path fill="#f7f7f7" d="M 652.074219 128.097656 C 650.679688 121.039062 648.578125 114.105469 645.820312 107.453125 C 640.308594 94.144531 632.160156 81.992188 622.019531 71.851562 C 611.878906 61.710938 599.726562 53.558594 586.414062 48.046875 C 579.761719 45.289062 572.832031 43.191406 565.769531 41.792969 C 558.710938 40.394531 551.523438 39.699219 544.386719 39.695312 L 544.386719 41.421875 C 551.414062 41.429688 558.484375 42.113281 565.433594 43.488281 C 572.382812 44.863281 579.207031 46.933594 585.753906 49.644531 C 598.855469 55.070312 610.8125 63.089844 620.796875 73.074219 C 630.777344 83.054688 638.796875 95.015625 644.222656 108.117188 C 646.9375 114.660156 649.003906 121.484375 650.378906 128.433594 C 651.757812 135.382812 652.441406 142.457031 652.445312 149.484375 L 654.175781 149.484375 C 654.167969 142.34375 653.472656 135.160156 652.074219 128.097656 " fill-opacity="1" fill-rule="nonzero"/></g><g clip-path="url(#014dfdbf4a)"><path fill="#f7f7f7" d="M 573.605469 120.265625 C 569.757812 116.417969 565.160156 113.347656 560.191406 111.292969 C 555.214844 109.230469 549.882812 108.171875 544.386719 108.160156 L 544.386719 109.890625 C 549.660156 109.902344 554.761719 110.917969 559.527344 112.890625 C 564.285156 114.859375 568.691406 117.800781 572.382812 121.488281 C 576.066406 125.175781 579.011719 129.582031 580.980469 134.339844 C 582.953125 139.105469 583.964844 144.207031 583.980469 149.484375 L 585.707031 149.484375 C 585.695312 143.984375 584.636719 138.652344 582.574219 133.679688 C 580.519531 128.710938 577.449219 124.113281 573.605469 120.265625 " fill-opacity="1" fill-rule="nonzero"/></g><g clip-path="url(#b984f06d7d)"><path fill="#525252" d="M 259.257812 446.671875 C 259.269531 441.683594 260.226562 436.882812 262.085938 432.390625 C 263.941406 427.90625 266.714844 423.75 270.195312 420.265625 C 273.675781 416.785156 277.835938 414.011719 282.320312 412.15625 C 286.8125 410.296875 291.613281 409.339844 296.601562 409.328125 L 296.601562 334.636719 C 289.320312 334.644531 281.988281 335.351562 274.78125 336.777344 C 267.574219 338.203125 260.5 340.347656 253.710938 343.164062 C 240.125 348.789062 227.726562 357.101562 217.378906 367.453125 C 207.03125 377.800781 198.714844 390.199219 193.09375 403.78125 C 190.277344 410.570312 188.132812 417.648438 186.707031 424.851562 C 185.28125 432.058594 184.570312 439.390625 184.566406 446.671875 L 259.257812 446.671875 " fill-opacity="1" fill-rule="nonzero"/></g><g clip-path="url(#e256adbde9)"><path fill="#f7f7f7" d="M 243.054688 393.125 C 250.0625 386.117188 258.457031 380.492188 267.617188 376.703125 C 276.777344 372.898438 286.691406 370.949219 296.601562 370.945312 L 296.601562 373.019531 C 286.957031 373.023438 277.320312 374.917969 268.414062 378.617188 C 259.503906 382.304688 251.339844 387.773438 244.519531 394.59375 C 237.703125 401.414062 232.234375 409.578125 228.546875 418.484375 C 224.847656 427.390625 222.953125 437.027344 222.949219 446.671875 L 220.875 446.671875 C 220.875 436.761719 222.824219 426.847656 226.628906 417.691406 C 230.421875 408.527344 236.042969 400.136719 243.054688 393.125 " fill-opacity="1" fill-rule="nonzero"/></g><g clip-path="url(#33ad1d391b)"><path fill="#f7f7f7" d="M 188.914062 425.289062 C 190.308594 418.226562 192.410156 411.296875 195.167969 404.644531 C 200.679688 391.332031 208.828125 379.179688 218.96875 369.042969 C 229.109375 358.898438 241.261719 350.75 254.574219 345.238281 C 261.222656 342.480469 268.15625 340.382812 275.21875 338.984375 C 282.277344 337.585938 289.464844 336.890625 296.601562 336.886719 L 296.601562 338.613281 C 289.574219 338.617188 282.5 339.300781 275.554688 340.679688 C 268.605469 342.054688 261.78125 344.121094 255.234375 346.835938 C 242.132812 352.261719 230.175781 360.28125 220.191406 370.265625 C 210.210938 380.246094 202.1875 392.207031 196.765625 405.304688 C 194.050781 411.851562 191.984375 418.675781 190.609375 425.625 C 189.230469 432.574219 188.546875 439.644531 188.542969 446.671875 L 186.8125 446.671875 C 186.820312 439.535156 187.511719 432.347656 188.914062 425.289062 " fill-opacity="1" fill-rule="nonzero"/></g><g clip-path="url(#76ac118fd8)"><path fill="#f7f7f7" d="M 267.382812 417.453125 C 271.230469 413.609375 275.828125 410.539062 280.796875 408.484375 C 285.773438 406.421875 291.101562 405.363281 296.601562 405.351562 L 296.601562 407.078125 C 291.324219 407.09375 286.226562 408.105469 281.460938 410.082031 C 276.703125 412.050781 272.292969 414.992188 268.605469 418.675781 C 264.917969 422.367188 261.976562 426.773438 260.007812 431.53125 C 258.035156 436.296875 257.023438 441.398438 257.007812 446.671875 L 255.28125 446.671875 C 255.292969 441.175781 256.351562 435.84375 258.414062 430.871094 C 260.46875 425.898438 263.539062 421.300781 267.382812 417.453125 " fill-opacity="1" fill-rule="nonzero"/></g><g clip-path="url(#ef96631b60)"><path fill="#525252" d="M 408.917969 -0.046875 C 408.933594 4.9375 409.886719 9.742188 411.75 14.230469 C 413.601562 18.714844 416.378906 22.875 419.859375 26.359375 C 423.339844 29.835938 427.5 32.613281 431.984375 34.46875 C 436.476562 36.328125 441.277344 37.285156 446.265625 37.296875 L 446.265625 111.988281 C 438.984375 111.980469 431.652344 111.273438 424.445312 109.84375 C 417.238281 108.417969 410.164062 106.277344 403.375 103.460938 C 389.789062 97.835938 377.390625 89.519531 367.042969 79.171875 C 356.695312 68.824219 348.378906 56.425781 342.753906 42.839844 C 339.941406 36.054688 337.796875 28.976562 336.371094 21.773438 C 334.945312 14.566406 334.234375 7.234375 334.230469 -0.046875 L 408.917969 -0.046875 " fill-opacity="1" fill-rule="nonzero"/></g><g clip-path="url(#d1e99a74a5)"><path fill="#f7f7f7" d="M 392.71875 53.5 C 399.726562 60.507812 408.121094 66.132812 417.28125 69.921875 C 426.4375 73.726562 436.355469 75.675781 446.265625 75.679688 L 446.265625 73.605469 C 436.621094 73.601562 426.980469 71.707031 418.078125 68.007812 C 409.167969 64.320312 401.003906 58.851562 394.183594 52.03125 C 387.367188 45.210938 381.898438 37.046875 378.210938 28.140625 C 374.511719 19.234375 372.617188 9.597656 372.613281 -0.046875 L 370.535156 -0.046875 C 370.539062 9.863281 372.488281 19.777344 376.292969 28.933594 C 380.085938 38.097656 385.707031 46.488281 392.71875 53.5 " fill-opacity="1" fill-rule="nonzero"/></g><g clip-path="url(#f078f9e52a)"><path fill="#f7f7f7" d="M 338.574219 21.335938 C 339.972656 28.394531 342.074219 35.328125 344.832031 41.980469 C 350.34375 55.292969 358.492188 67.441406 368.632812 77.582031 C 378.773438 87.726562 390.925781 95.875 404.234375 101.386719 C 410.886719 104.144531 417.820312 106.242188 424.882812 107.640625 C 431.941406 109.039062 439.128906 109.734375 446.265625 109.738281 L 446.265625 108.011719 C 439.238281 108.003906 432.164062 107.320312 425.214844 105.945312 C 418.269531 104.570312 411.445312 102.503906 404.898438 99.789062 C 391.796875 94.363281 379.835938 86.34375 369.855469 76.359375 C 359.875 66.378906 351.851562 54.417969 346.429688 41.320312 C 343.714844 34.773438 341.648438 27.949219 340.273438 21 C 338.894531 14.050781 338.210938 6.980469 338.207031 -0.046875 L 336.476562 -0.046875 C 336.480469 7.089844 337.175781 14.273438 338.574219 21.335938 " fill-opacity="1" fill-rule="nonzero"/></g><g clip-path="url(#85711d3657)"><path fill="#f7f7f7" d="M 417.046875 29.167969 C 420.894531 33.015625 425.492188 36.085938 430.460938 38.140625 C 435.4375 40.203125 440.765625 41.261719 446.265625 41.273438 L 446.265625 39.542969 C 440.988281 39.53125 435.890625 38.519531 431.125 36.542969 C 426.363281 34.574219 421.957031 31.632812 418.269531 27.949219 C 414.582031 24.257812 411.640625 19.851562 409.671875 15.09375 C 407.699219 10.328125 406.683594 5.226562 406.671875 -0.046875 L 404.941406 -0.046875 C 404.957031 5.449219 406.011719 10.78125 408.074219 15.753906 C 410.132812 20.722656 413.199219 25.320312 417.046875 29.167969 " fill-opacity="1" fill-rule="nonzero"/></g><g clip-path="url(#2da05320e6)"><path fill="#525252" d="M 432.722656 296.953125 C 432.710938 301.941406 431.753906 306.742188 429.890625 311.234375 C 428.039062 315.71875 425.261719 319.875 421.785156 323.359375 C 418.300781 326.839844 414.140625 329.613281 409.65625 331.46875 C 405.164062 333.328125 400.363281 334.285156 395.375 334.296875 L 395.375 408.988281 C 402.660156 408.984375 409.992188 408.273438 417.199219 406.847656 C 424.402344 405.421875 431.480469 403.277344 438.265625 400.460938 C 451.851562 394.835938 464.25 386.523438 474.597656 376.175781 C 484.945312 365.828125 493.261719 353.429688 498.886719 339.84375 C 501.703125 333.054688 503.84375 325.976562 505.269531 318.773438 C 506.699219 311.566406 507.40625 304.234375 507.414062 296.953125 L 432.722656 296.953125 " fill-opacity="1" fill-rule="nonzero"/></g><g clip-path="url(#a37533b2df)"><path fill="#f7f7f7" d="M 448.925781 350.5 C 441.914062 357.507812 433.519531 363.132812 424.359375 366.925781 C 415.203125 370.730469 405.289062 372.675781 395.375 372.679688 L 395.375 370.605469 C 405.023438 370.601562 414.660156 368.707031 423.566406 365.007812 C 432.472656 361.320312 440.636719 355.851562 447.457031 349.035156 C 454.277344 342.214844 459.746094 334.050781 463.429688 325.140625 C 467.132812 316.234375 469.027344 306.597656 469.03125 296.953125 L 471.105469 296.953125 C 471.101562 306.863281 469.152344 316.777344 465.347656 325.933594 C 461.558594 335.097656 455.933594 343.488281 448.925781 350.5 " fill-opacity="1" fill-rule="nonzero"/></g><g clip-path="url(#fa09157d92)"><path fill="#f7f7f7" d="M 503.066406 318.335938 C 501.667969 325.398438 499.570312 332.332031 496.8125 338.980469 C 491.300781 352.292969 483.152344 364.445312 473.007812 374.585938 C 462.867188 384.726562 450.71875 392.875 437.40625 398.386719 C 430.753906 401.144531 423.820312 403.246094 416.761719 404.640625 C 409.699219 406.042969 402.515625 406.734375 395.375 406.742188 L 395.375 405.011719 C 402.40625 405.007812 409.476562 404.324219 416.425781 402.945312 C 423.375 401.570312 430.199219 399.503906 436.746094 396.789062 C 449.84375 391.367188 461.804688 383.34375 471.785156 373.363281 C 481.769531 363.378906 489.789062 351.421875 495.214844 338.320312 C 497.929688 331.773438 499.996094 324.949219 501.371094 318 C 502.746094 311.050781 503.429688 303.980469 503.4375 296.953125 L 505.164062 296.953125 C 505.160156 304.089844 504.464844 311.277344 503.066406 318.335938 " fill-opacity="1" fill-rule="nonzero"/></g><g clip-path="url(#01b164477d)"><path fill="#f7f7f7" d="M 424.59375 326.171875 C 420.746094 330.015625 416.148438 333.085938 411.179688 335.140625 C 406.207031 337.203125 400.875 338.261719 395.375 338.273438 L 395.375 336.546875 C 400.652344 336.53125 405.753906 335.519531 410.519531 333.546875 C 415.277344 331.578125 419.683594 328.636719 423.375 324.949219 C 427.058594 321.257812 430 316.851562 431.96875 312.09375 C 433.941406 307.328125 434.957031 302.226562 434.96875 296.953125 L 436.699219 296.953125 C 436.6875 302.449219 435.628906 307.78125 433.566406 312.757812 C 431.511719 317.726562 428.441406 322.324219 424.59375 326.171875 " fill-opacity="1" fill-rule="nonzero"/></g><g clip-path="url(#ef4bc44baa)"><path fill="#525252" d="M 408.207031 594.308594 C 408.21875 599.296875 409.175781 604.097656 411.035156 608.589844 C 412.890625 613.074219 415.664062 617.234375 419.144531 620.714844 C 422.628906 624.195312 426.785156 626.972656 431.269531 628.824219 C 435.761719 630.6875 440.5625 631.640625 445.550781 631.65625 L 445.550781 706.34375 C 438.269531 706.339844 430.9375 705.628906 423.730469 704.203125 C 416.527344 702.777344 409.449219 700.632812 402.660156 697.820312 C 389.074219 692.195312 376.675781 683.878906 366.328125 673.53125 C 355.980469 663.183594 347.667969 650.785156 342.042969 637.199219 C 339.226562 630.410156 337.082031 623.335938 335.65625 616.128906 C 334.230469 608.921875 333.519531 601.589844 333.515625 594.308594 L 408.207031 594.308594 " fill-opacity="1" fill-rule="nonzero"/></g><g clip-path="url(#892fcd68fa)"><path fill="#f7f7f7" d="M 392.003906 647.855469 C 399.015625 654.867188 407.40625 660.488281 416.570312 664.28125 C 425.726562 668.085938 435.640625 670.035156 445.550781 670.039062 L 445.550781 667.960938 C 435.90625 667.957031 426.269531 666.0625 417.363281 662.363281 C 408.453125 658.675781 400.289062 653.207031 393.472656 646.390625 C 386.652344 639.570312 381.183594 631.40625 377.496094 622.496094 C 373.796875 613.59375 371.902344 603.953125 371.898438 594.308594 L 369.824219 594.308594 C 369.828125 604.21875 371.773438 614.136719 375.578125 623.292969 C 379.371094 632.453125 384.996094 640.847656 392.003906 647.855469 " fill-opacity="1" fill-rule="nonzero"/></g><g clip-path="url(#dc5cf4300b)"><path fill="#f7f7f7" d="M 337.863281 615.691406 C 339.257812 622.753906 341.359375 629.6875 344.117188 636.339844 C 349.628906 649.648438 357.777344 661.800781 367.917969 671.941406 C 378.058594 682.082031 390.210938 690.230469 403.523438 695.742188 C 410.171875 698.5 417.105469 700.601562 424.167969 702 C 431.226562 703.398438 438.414062 704.09375 445.550781 704.097656 L 445.550781 702.367188 C 438.523438 702.363281 431.453125 701.679688 424.503906 700.300781 C 417.554688 698.925781 410.730469 696.859375 404.183594 694.144531 C 391.082031 688.722656 379.125 680.699219 369.140625 670.71875 C 359.160156 660.738281 351.136719 648.777344 345.714844 635.675781 C 343 629.128906 340.933594 622.304688 339.558594 615.359375 C 338.179688 608.410156 337.496094 601.335938 337.492188 594.308594 L 335.761719 594.308594 C 335.769531 601.445312 336.460938 608.632812 337.863281 615.691406 " fill-opacity="1" fill-rule="nonzero"/></g><g clip-path="url(#b324cb130c)"><path fill="#f7f7f7" d="M 416.332031 623.527344 C 420.179688 627.375 424.777344 630.441406 429.746094 632.5 C 434.722656 634.558594 440.054688 635.617188 445.550781 635.632812 L 445.550781 633.902344 C 440.277344 633.890625 435.175781 632.875 430.410156 630.902344 C 425.652344 628.933594 421.246094 625.992188 417.554688 622.304688 C 413.871094 618.617188 410.925781 614.210938 408.957031 609.453125 C 406.984375 604.683594 405.972656 599.585938 405.957031 594.308594 L 404.230469 594.308594 C 404.242188 599.804688 405.300781 605.136719 407.363281 610.113281 C 409.417969 615.082031 412.488281 619.679688 416.332031 623.527344 " fill-opacity="1" fill-rule="nonzero"/></g><g clip-path="url(#fd61a340c7)"><path fill="#525252" d="M 395.902344 408.910156 L 296.253906 408.910156 L 296.253906 334.632812 L 395.902344 334.632812 L 395.902344 408.910156 " fill-opacity="1" fill-rule="nonzero"/></g><g clip-path="url(#044c56d165)"><path fill="#f7f7f7" d="M 395.902344 372.804688 L 296.253906 372.804688 L 296.253906 370.742188 L 395.902344 370.742188 L 395.902344 372.804688 " fill-opacity="1" fill-rule="nonzero"/></g><g clip-path="url(#1ecd020f3f)"><path fill="#f7f7f7" d="M 395.902344 338.589844 L 296.253906 338.589844 L 296.253906 336.867188 L 395.902344 336.867188 L 395.902344 338.589844 " fill-opacity="1" fill-rule="nonzero"/></g><g clip-path="url(#eaadf83193)"><path fill="#f7f7f7" d="M 395.902344 406.675781 L 296.253906 406.675781 L 296.253906 404.957031 L 395.902344 404.957031 L 395.902344 406.675781 " fill-opacity="1" fill-rule="nonzero"/></g><g clip-path="url(#889174eff5)"><path fill="#525252" d="M 544.929688 706.203125 L 445.285156 706.203125 L 445.285156 631.925781 L 544.929688 631.925781 L 544.929688 706.203125 " fill-opacity="1" fill-rule="nonzero"/></g><g clip-path="url(#2155ad7e96)"><path fill="#f7f7f7" d="M 544.929688 670.097656 L 445.285156 670.097656 L 445.285156 668.03125 L 544.929688 668.03125 L 544.929688 670.097656 " fill-opacity="1" fill-rule="nonzero"/></g><g clip-path="url(#3e95c4fb63)"><path fill="#f7f7f7" d="M 544.929688 635.878906 L 445.285156 635.878906 L 445.285156 634.160156 L 544.929688 634.160156 L 544.929688 635.878906 " fill-opacity="1" fill-rule="nonzero"/></g><g clip-path="url(#4737152749)"><path fill="#f7f7f7" d="M 544.929688 703.96875 L 445.285156 703.96875 L 445.285156 702.25 L 544.929688 702.25 L 544.929688 703.96875 " fill-opacity="1" fill-rule="nonzero"/></g><g clip-path="url(#c8d4e02691)"><path fill="#525252" d="M 545.277344 111.847656 L 445.632812 111.847656 L 445.632812 37.570312 L 545.277344 37.570312 L 545.277344 111.847656 " fill-opacity="1" fill-rule="nonzero"/></g><g clip-path="url(#a9b0dd656c)"><path fill="#f7f7f7" d="M 545.277344 75.738281 L 445.632812 75.738281 L 445.632812 73.675781 L 545.277344 73.675781 L 545.277344 75.738281 " fill-opacity="1" fill-rule="nonzero"/></g><g clip-path="url(#096b52da65)"><path fill="#f7f7f7" d="M 545.277344 41.523438 L 445.632812 41.523438 L 445.632812 39.804688 L 545.277344 39.804688 L 545.277344 41.523438 " fill-opacity="1" fill-rule="nonzero"/></g><g clip-path="url(#98fb8872e6)"><path fill="#f7f7f7" d="M 545.277344 109.609375 L 445.632812 109.609375 L 445.632812 107.890625 L 545.277344 107.890625 L 545.277344 109.609375 " fill-opacity="1" fill-rule="nonzero"/></g><g clip-path="url(#224e37d600)"><path fill="#525252" d="M 509.945312 877.902344 C 511.792969 873.425781 514.558594 869.269531 518.027344 865.792969 C 521.5 862.316406 525.640625 859.546875 530.113281 857.695312 C 534.589844 855.835938 539.375 854.882812 544.347656 854.867188 C 551.605469 854.863281 558.914062 854.15625 566.09375 852.730469 C 573.277344 851.304688 580.328125 849.164062 587.09375 846.355469 C 600.632812 840.738281 612.992188 832.433594 623.304688 822.097656 C 633.617188 811.761719 641.90625 799.378906 647.515625 785.8125 C 650.320312 779.035156 652.457031 771.964844 653.878906 764.769531 C 655.300781 757.574219 656.003906 750.25 656.011719 742.976562 L 581.566406 742.976562 C 581.554688 747.957031 580.601562 752.753906 578.746094 757.238281 C 576.898438 761.71875 574.132812 765.871094 570.664062 769.347656 C 567.195312 772.824219 563.050781 775.597656 558.578125 777.449219 C 554.101562 779.304688 549.320312 780.261719 544.347656 780.273438 C 537.085938 780.28125 529.777344 780.984375 522.597656 782.414062 C 515.414062 783.835938 508.363281 785.976562 501.597656 788.789062 C 488.058594 794.40625 475.699219 802.710938 465.386719 813.046875 C 455.074219 823.378906 446.785156 835.761719 441.175781 849.332031 C 438.371094 856.109375 436.238281 863.175781 434.816406 870.375 C 433.390625 877.570312 432.6875 884.894531 432.679688 892.167969 L 507.125 892.167969 C 507.136719 887.183594 508.089844 882.390625 509.945312 877.902344 " fill-opacity="1" fill-rule="nonzero"/></g><g clip-path="url(#b733008490)"><path fill="#f7f7f7" d="M 596.253906 794.988281 C 589.457031 801.800781 581.320312 807.261719 572.441406 810.945312 C 563.566406 814.640625 553.960938 816.53125 544.347656 816.535156 L 544.347656 818.609375 C 554.226562 818.605469 564.105469 816.660156 573.230469 812.859375 C 582.363281 809.070312 590.730469 803.457031 597.714844 796.457031 C 604.703125 789.453125 610.308594 781.070312 614.085938 771.921875 C 617.878906 762.777344 619.820312 752.875 619.824219 742.976562 L 617.753906 742.976562 C 617.75 752.609375 615.863281 762.234375 612.175781 771.128906 C 608.5 780.027344 603.050781 788.179688 596.253906 794.988281 " fill-opacity="1" fill-rule="nonzero"/></g><g clip-path="url(#83af54195f)"><path fill="#f7f7f7" d="M 643.851562 784.289062 C 638.445312 797.375 630.453125 809.320312 620.503906 819.289062 C 610.554688 829.257812 598.632812 837.269531 585.578125 842.6875 C 579.050781 845.398438 572.25 847.460938 565.324219 848.835938 C 558.398438 850.210938 551.347656 850.894531 544.347656 850.898438 L 544.347656 852.625 C 551.460938 852.617188 558.625 851.925781 565.660156 850.527344 C 572.695312 849.132812 579.609375 847.035156 586.234375 844.28125 C 599.503906 838.777344 611.613281 830.636719 621.722656 820.507812 C 631.828125 810.382812 639.949219 798.246094 645.445312 784.953125 C 648.191406 778.308594 650.285156 771.386719 651.679688 764.332031 C 653.074219 757.28125 653.765625 750.105469 653.769531 742.976562 L 652.046875 742.976562 C 652.042969 749.996094 651.359375 757.058594 649.988281 763.996094 C 648.617188 770.9375 646.558594 777.753906 643.851562 784.289062 " fill-opacity="1" fill-rule="nonzero"/></g><g clip-path="url(#ac75a33e4c)"><path fill="#f7f7f7" d="M 544.347656 784.246094 C 549.824219 784.234375 555.140625 783.175781 560.097656 781.117188 C 565.050781 779.066406 569.632812 776 573.46875 772.15625 C 577.300781 768.3125 580.359375 763.722656 582.410156 758.757812 C 584.464844 753.789062 585.519531 748.46875 585.53125 742.976562 L 583.808594 742.976562 C 583.796875 748.246094 582.785156 753.339844 580.816406 758.097656 C 578.855469 762.851562 575.925781 767.253906 572.25 770.9375 C 568.570312 774.617188 564.179688 777.558594 559.4375 779.523438 C 554.6875 781.492188 549.605469 782.503906 544.347656 782.519531 L 544.347656 784.246094 " fill-opacity="1" fill-rule="nonzero"/></g><g clip-path="url(#b4907f3a70)"><path fill="#f7f7f7" d="M 492.4375 840.152344 C 499.234375 833.34375 507.371094 827.882812 516.25 824.199219 C 525.125 820.503906 534.730469 818.613281 544.347656 818.609375 L 544.347656 816.535156 C 534.46875 816.539062 524.585938 818.484375 515.457031 822.285156 C 506.328125 826.070312 497.960938 831.6875 490.976562 838.6875 C 483.988281 845.6875 478.386719 854.070312 474.605469 863.21875 C 470.8125 872.367188 468.871094 882.269531 468.867188 892.167969 L 470.9375 892.167969 C 470.941406 882.535156 472.828125 872.90625 476.515625 864.015625 C 480.191406 855.117188 485.640625 846.964844 492.4375 840.152344 " fill-opacity="1" fill-rule="nonzero"/></g><g clip-path="url(#8a7a437236)"><path fill="#f7f7f7" d="M 444.839844 850.851562 C 450.246094 837.769531 458.238281 825.824219 468.1875 815.855469 C 478.136719 805.882812 490.058594 797.875 503.113281 792.457031 C 509.640625 789.746094 516.441406 787.683594 523.367188 786.308594 C 530.292969 784.933594 537.34375 784.25 544.347656 784.246094 L 544.347656 782.519531 C 537.230469 782.523438 530.070312 783.21875 523.03125 784.617188 C 515.996094 786.011719 509.085938 788.105469 502.457031 790.863281 C 489.1875 796.367188 477.078125 804.503906 466.96875 814.632812 C 456.863281 824.761719 448.742188 836.894531 443.246094 850.191406 C 440.5 856.832031 438.40625 863.757812 437.011719 870.808594 C 435.617188 877.859375 434.925781 885.039062 434.921875 892.167969 L 436.644531 892.167969 C 436.648438 885.148438 437.332031 878.085938 438.703125 871.144531 C 440.074219 864.203125 442.132812 857.390625 444.839844 850.851562 " fill-opacity="1" fill-rule="nonzero"/></g><g clip-path="url(#8c3b5cb186)"><path fill="#f7f7f7" d="M 507.875 877.042969 C 509.835938 872.292969 512.765625 867.890625 516.441406 864.207031 C 520.121094 860.523438 524.511719 857.585938 529.253906 855.621094 C 534.003906 853.648438 539.085938 852.636719 544.347656 852.625 L 544.347656 850.898438 C 538.867188 850.910156 533.550781 851.964844 528.59375 854.027344 C 523.640625 856.078125 519.058594 859.144531 515.222656 862.984375 C 511.390625 866.828125 508.332031 871.417969 506.28125 876.382812 C 504.226562 881.351562 503.171875 886.675781 503.160156 892.167969 L 504.882812 892.167969 C 504.898438 886.898438 505.90625 881.804688 507.875 877.042969 " fill-opacity="1" fill-rule="nonzero"/></g><g clip-path="url(#b29896543b)"><path fill="#525252" d="M 262.132812 1054.394531 C 263.980469 1058.875 266.746094 1063.027344 270.214844 1066.503906 C 273.6875 1069.980469 277.832031 1072.75 282.300781 1074.605469 C 286.777344 1076.460938 291.5625 1077.417969 296.535156 1077.429688 C 303.792969 1077.4375 311.101562 1078.144531 318.285156 1079.570312 C 325.464844 1080.992188 332.515625 1083.132812 339.285156 1085.945312 C 352.824219 1091.5625 365.179688 1099.867188 375.496094 1110.203125 C 385.808594 1120.535156 394.097656 1132.917969 399.703125 1146.488281 C 402.507812 1153.265625 404.644531 1160.332031 406.066406 1167.53125 C 407.488281 1174.726562 408.195312 1182.050781 408.199219 1189.324219 L 333.757812 1189.324219 C 333.742188 1184.339844 332.792969 1179.546875 330.9375 1175.058594 C 329.089844 1170.582031 326.324219 1166.425781 322.855469 1162.949219 C 319.382812 1159.472656 315.238281 1156.703125 310.769531 1154.847656 C 306.292969 1152.992188 301.507812 1152.039062 296.535156 1152.023438 C 289.277344 1152.019531 281.96875 1151.3125 274.785156 1149.886719 C 267.605469 1148.460938 260.554688 1146.320312 253.785156 1143.511719 C 240.246094 1137.890625 227.890625 1129.589844 217.574219 1119.25 C 207.261719 1108.917969 198.976562 1096.535156 193.367188 1082.96875 C 190.5625 1076.1875 188.425781 1069.121094 187.003906 1061.925781 C 185.582031 1054.726562 184.875 1047.40625 184.871094 1040.132812 L 259.3125 1040.132812 C 259.328125 1045.113281 260.277344 1049.910156 262.132812 1054.394531 " fill-opacity="1" fill-rule="nonzero"/></g><g clip-path="url(#ce6ad3725c)"><path fill="#f7f7f7" d="M 348.445312 1137.308594 C 341.644531 1130.5 333.507812 1125.035156 324.628906 1121.355469 C 315.753906 1117.660156 306.148438 1115.765625 296.535156 1115.765625 L 296.535156 1113.691406 C 306.414062 1113.695312 316.296875 1115.640625 325.421875 1119.441406 C 334.554688 1123.226562 342.917969 1128.84375 349.90625 1135.84375 C 356.890625 1142.84375 362.496094 1151.226562 366.273438 1160.375 C 370.070312 1169.519531 372.007812 1179.421875 372.011719 1189.324219 L 369.945312 1189.324219 C 369.941406 1179.691406 368.054688 1170.0625 364.363281 1161.167969 C 360.691406 1152.273438 355.238281 1144.121094 348.445312 1137.308594 " fill-opacity="1" fill-rule="nonzero"/></g><g clip-path="url(#56d07c451c)"><path fill="#f7f7f7" d="M 396.039062 1148.007812 C 390.636719 1134.921875 382.640625 1122.980469 372.691406 1113.011719 C 362.742188 1103.042969 350.820312 1095.03125 337.765625 1089.613281 C 331.242188 1086.902344 324.441406 1084.839844 317.515625 1083.464844 C 310.589844 1082.089844 303.539062 1081.40625 296.535156 1081.402344 L 296.535156 1079.675781 C 303.648438 1079.679688 310.8125 1080.371094 317.847656 1081.769531 C 324.886719 1083.167969 331.796875 1085.261719 338.425781 1088.019531 C 351.691406 1093.523438 363.804688 1101.660156 373.910156 1111.789062 C 384.019531 1121.917969 392.140625 1134.050781 397.632812 1147.347656 C 400.382812 1153.988281 402.476562 1160.914062 403.867188 1167.964844 C 405.261719 1175.015625 405.953125 1182.191406 405.960938 1189.324219 L 404.238281 1189.324219 C 404.230469 1182.304688 403.550781 1175.238281 402.175781 1168.300781 C 400.808594 1161.359375 398.746094 1154.546875 396.039062 1148.007812 " fill-opacity="1" fill-rule="nonzero"/></g><g clip-path="url(#609dc1c072)"><path fill="#f7f7f7" d="M 296.535156 1148.054688 C 302.015625 1148.066406 307.328125 1149.121094 312.285156 1151.179688 C 317.242188 1153.234375 321.820312 1156.300781 325.65625 1160.140625 C 329.492188 1163.984375 332.550781 1168.574219 334.597656 1173.539062 C 336.652344 1178.507812 337.707031 1183.832031 337.71875 1189.324219 L 335.996094 1189.324219 C 335.984375 1184.054688 334.972656 1178.957031 333.007812 1174.199219 C 331.042969 1169.449219 328.113281 1165.046875 324.4375 1161.363281 C 320.761719 1157.679688 316.371094 1154.742188 311.628906 1152.777344 C 306.878906 1150.804688 301.792969 1149.792969 296.535156 1149.777344 L 296.535156 1148.054688 " fill-opacity="1" fill-rule="nonzero"/></g><g clip-path="url(#d339a7cfea)"><path fill="#f7f7f7" d="M 244.625 1092.144531 C 251.425781 1098.957031 259.5625 1104.417969 268.441406 1108.097656 C 277.316406 1111.796875 286.921875 1113.6875 296.535156 1113.691406 L 296.535156 1115.765625 C 286.65625 1115.761719 276.773438 1113.816406 267.648438 1110.015625 C 258.515625 1106.226562 250.152344 1100.609375 243.164062 1093.609375 C 236.179688 1086.609375 230.574219 1078.226562 226.796875 1069.078125 C 223 1059.933594 221.0625 1050.03125 221.058594 1040.132812 L 223.125 1040.132812 C 223.128906 1049.765625 225.015625 1059.390625 228.707031 1068.285156 C 232.378906 1077.183594 237.832031 1085.335938 244.625 1092.144531 " fill-opacity="1" fill-rule="nonzero"/></g><g clip-path="url(#faaea1c596)"><path fill="#f7f7f7" d="M 197.027344 1081.445312 C 202.433594 1094.53125 210.429688 1106.476562 220.378906 1116.445312 C 230.328125 1126.414062 242.25 1134.421875 255.304688 1139.84375 C 261.828125 1142.554688 268.628906 1144.617188 275.554688 1145.992188 C 282.480469 1147.363281 289.53125 1148.046875 296.535156 1148.054688 L 296.535156 1149.777344 C 289.421875 1149.773438 282.257812 1149.082031 275.222656 1147.683594 C 268.183594 1146.289062 261.273438 1144.191406 254.644531 1141.4375 C 241.378906 1135.933594 229.265625 1127.792969 219.160156 1117.664062 C 209.050781 1107.539062 200.929688 1095.402344 195.4375 1082.105469 C 192.6875 1075.464844 190.59375 1068.542969 189.203125 1061.488281 C 187.808594 1054.4375 187.117188 1047.261719 187.109375 1040.132812 L 188.835938 1040.132812 C 188.839844 1047.152344 189.519531 1054.214844 190.894531 1061.152344 C 192.261719 1068.09375 194.324219 1074.910156 197.027344 1081.445312 " fill-opacity="1" fill-rule="nonzero"/></g><g clip-path="url(#9650153f5a)"><path fill="#f7f7f7" d="M 260.0625 1055.253906 C 262.023438 1060.007812 264.957031 1064.410156 268.632812 1068.09375 C 272.308594 1071.773438 276.699219 1074.714844 281.441406 1076.679688 C 286.191406 1078.648438 291.277344 1079.660156 296.535156 1079.675781 L 296.535156 1081.402344 C 291.054688 1081.386719 285.742188 1080.332031 280.785156 1078.273438 C 275.828125 1076.21875 271.25 1073.152344 267.414062 1069.316406 C 263.578125 1065.46875 260.519531 1060.878906 258.472656 1055.914062 C 256.417969 1050.945312 255.363281 1045.625 255.351562 1040.132812 L 257.074219 1040.132812 C 257.085938 1045.402344 258.097656 1050.496094 260.0625 1055.253906 " fill-opacity="1" fill-rule="nonzero"/></g><g clip-path="url(#9ed1ba6332)"><path fill="#525252" d="M 581.730469 743.964844 C 581.71875 738.976562 580.761719 734.175781 578.902344 729.683594 C 577.046875 725.199219 574.273438 721.042969 570.792969 717.558594 C 567.308594 714.078125 563.152344 711.304688 558.667969 709.449219 C 554.175781 707.589844 549.375 706.632812 544.386719 706.621094 L 544.386719 631.929688 C 551.667969 631.933594 559 632.644531 566.207031 634.070312 C 573.410156 635.496094 580.488281 637.640625 587.277344 640.457031 C 600.863281 646.082031 613.261719 654.394531 623.605469 664.742188 C 633.957031 675.089844 642.269531 687.488281 647.894531 701.074219 C 650.710938 707.863281 652.855469 714.941406 654.28125 722.144531 C 655.707031 729.351562 656.417969 736.683594 656.421875 743.964844 L 581.730469 743.964844 " fill-opacity="1" fill-rule="nonzero"/></g><g clip-path="url(#83c59ac505)"><path fill="#f7f7f7" d="M 597.933594 690.417969 C 590.921875 683.410156 582.53125 677.785156 573.367188 673.992188 C 564.210938 670.1875 554.296875 668.242188 544.386719 668.238281 L 544.386719 670.3125 C 554.03125 670.316406 563.667969 672.210938 572.574219 675.910156 C 581.484375 679.597656 589.644531 685.066406 596.464844 691.882812 C 603.285156 698.703125 608.753906 706.867188 612.441406 715.777344 C 616.140625 724.683594 618.035156 734.320312 618.039062 743.964844 L 620.113281 743.964844 C 620.109375 734.054688 618.164062 724.140625 614.355469 714.984375 C 610.566406 705.820312 604.941406 697.429688 597.933594 690.417969 " fill-opacity="1" fill-rule="nonzero"/></g><g clip-path="url(#f815d3337a)"><path fill="#f7f7f7" d="M 652.074219 722.582031 C 650.679688 715.519531 648.578125 708.585938 645.820312 701.9375 C 640.308594 688.625 632.160156 676.472656 622.019531 666.332031 C 611.878906 656.191406 599.726562 648.042969 586.414062 642.53125 C 579.761719 639.773438 572.832031 637.671875 565.769531 636.277344 C 558.710938 634.875 551.523438 634.183594 544.386719 634.175781 L 544.386719 635.90625 C 551.414062 635.910156 558.484375 636.59375 565.433594 637.972656 C 572.382812 639.347656 579.207031 641.414062 585.753906 644.128906 C 598.855469 649.550781 610.8125 657.574219 620.796875 667.554688 C 630.777344 677.539062 638.796875 689.496094 644.222656 702.597656 C 646.9375 709.144531 649.003906 715.96875 650.378906 722.917969 C 651.757812 729.867188 652.441406 736.9375 652.445312 743.964844 L 654.175781 743.964844 C 654.167969 736.828125 653.472656 729.640625 652.074219 722.582031 " fill-opacity="1" fill-rule="nonzero"/></g><g clip-path="url(#6ae3e6c1bc)"><path fill="#f7f7f7" d="M 573.605469 714.746094 C 569.757812 710.902344 565.160156 707.832031 560.191406 705.777344 C 555.214844 703.714844 549.882812 702.65625 544.386719 702.644531 L 544.386719 704.371094 C 549.660156 704.386719 554.761719 705.398438 559.527344 707.371094 C 564.285156 709.339844 568.691406 712.28125 572.382812 715.96875 C 576.066406 719.660156 579.011719 724.066406 580.980469 728.824219 C 582.953125 733.589844 583.964844 738.691406 583.980469 743.964844 L 585.707031 743.964844 C 585.695312 738.46875 584.636719 733.136719 582.574219 728.160156 C 580.519531 723.191406 577.449219 718.59375 573.605469 714.746094 " fill-opacity="1" fill-rule="nonzero"/></g><g clip-path="url(#14a2c255dd)"><path fill="#525252" d="M 259.210938 1041.15625 C 259.222656 1036.167969 260.179688 1031.367188 262.042969 1026.875 C 263.894531 1022.390625 266.671875 1018.230469 270.148438 1014.75 C 273.632812 1011.269531 277.792969 1008.492188 282.277344 1006.640625 C 286.769531 1004.777344 291.570312 1003.824219 296.558594 1003.808594 L 296.558594 929.121094 C 289.273438 929.125 281.941406 929.835938 274.734375 931.261719 C 267.53125 932.6875 260.453125 934.832031 253.667969 937.644531 C 240.082031 943.269531 227.683594 951.585938 217.335938 961.933594 C 206.988281 972.28125 198.671875 984.679688 193.046875 998.265625 C 190.230469 1005.054688 188.089844 1012.128906 186.664062 1019.335938 C 185.234375 1026.542969 184.527344 1033.875 184.519531 1041.15625 L 259.210938 1041.15625 " fill-opacity="1" fill-rule="nonzero"/></g><g clip-path="url(#dc21af17a8)"><path fill="#f7f7f7" d="M 243.007812 987.609375 C 250.019531 980.597656 258.414062 974.976562 267.574219 971.183594 C 276.730469 967.378906 286.644531 965.429688 296.558594 965.425781 L 296.558594 967.503906 C 286.910156 967.507812 277.273438 969.402344 268.367188 973.101562 C 259.460938 976.789062 251.296875 982.257812 244.476562 989.074219 C 237.65625 995.894531 232.1875 1004.058594 228.503906 1012.96875 C 224.800781 1021.871094 222.90625 1031.511719 222.902344 1041.15625 L 220.828125 1041.15625 C 220.832031 1031.246094 222.78125 1021.328125 226.585938 1012.171875 C 230.378906 1003.011719 236 994.617188 243.007812 987.609375 " fill-opacity="1" fill-rule="nonzero"/></g><g clip-path="url(#c8b7ae6176)"><path fill="#f7f7f7" d="M 188.867188 1019.773438 C 190.265625 1012.710938 192.363281 1005.777344 195.121094 999.125 C 200.632812 985.816406 208.78125 973.664062 218.925781 963.523438 C 229.066406 953.382812 241.214844 945.234375 254.527344 939.722656 C 261.179688 936.964844 268.113281 934.863281 275.171875 933.464844 C 282.234375 932.066406 289.417969 931.371094 296.558594 931.367188 L 296.558594 933.097656 C 289.53125 933.101562 282.457031 933.785156 275.507812 935.164062 C 268.558594 936.539062 261.734375 938.605469 255.191406 941.320312 C 242.089844 946.742188 230.128906 954.765625 220.148438 964.746094 C 210.164062 974.726562 202.144531 986.6875 196.71875 999.789062 C 194.003906 1006.335938 191.9375 1013.160156 190.5625 1020.105469 C 189.1875 1027.054688 188.503906 1034.128906 188.496094 1041.15625 L 186.769531 1041.15625 C 186.773438 1034.019531 187.46875 1026.832031 188.867188 1019.773438 " fill-opacity="1" fill-rule="nonzero"/></g><g clip-path="url(#09a380c0f8)"><path fill="#f7f7f7" d="M 267.339844 1011.9375 C 271.1875 1008.089844 275.785156 1005.023438 280.753906 1002.964844 C 285.726562 1000.90625 291.058594 999.847656 296.558594 999.832031 L 296.558594 1001.5625 C 291.28125 1001.574219 286.179688 1002.589844 281.414062 1004.5625 C 276.65625 1006.53125 272.25 1009.472656 268.558594 1013.160156 C 264.875 1016.847656 261.933594 1021.253906 259.964844 1026.011719 C 257.992188 1030.78125 256.976562 1035.878906 256.964844 1041.15625 L 255.234375 1041.15625 C 255.246094 1035.660156 256.304688 1030.328125 258.367188 1025.351562 C 260.421875 1020.382812 263.492188 1015.785156 267.339844 1011.9375 " fill-opacity="1" fill-rule="nonzero"/></g><g clip-path="url(#7b7f317e22)"><path fill="#525252" d="M 432.675781 891.433594 C 432.664062 896.421875 431.707031 901.222656 429.847656 905.714844 C 427.992188 910.199219 425.21875 914.359375 421.738281 917.84375 C 418.257812 921.320312 414.097656 924.097656 409.613281 925.949219 C 405.121094 927.8125 400.320312 928.765625 395.332031 928.78125 L 395.332031 1003.472656 C 402.613281 1003.464844 409.945312 1002.757812 417.152344 1001.328125 C 424.359375 999.902344 431.433594 997.761719 438.222656 994.945312 C 451.808594 989.320312 464.207031 981.003906 474.554688 970.65625 C 484.902344 960.308594 493.21875 947.910156 498.84375 934.324219 C 501.65625 927.539062 503.800781 920.460938 505.226562 913.253906 C 506.652344 906.050781 507.363281 898.71875 507.367188 891.433594 L 432.675781 891.433594 " fill-opacity="1" fill-rule="nonzero"/></g><g clip-path="url(#ffa5d9ab5f)"><path fill="#f7f7f7" d="M 448.878906 944.984375 C 441.871094 951.992188 433.476562 957.613281 424.316406 961.40625 C 415.15625 965.210938 405.242188 967.160156 395.332031 967.164062 L 395.332031 965.089844 C 404.976562 965.085938 414.617188 963.1875 423.519531 959.488281 C 432.429688 955.804688 440.59375 950.335938 447.414062 943.515625 C 454.230469 936.695312 459.699219 928.53125 463.386719 919.625 C 467.085938 910.71875 468.980469 901.078125 468.984375 891.433594 L 471.058594 891.433594 C 471.058594 901.347656 469.109375 911.261719 465.304688 920.417969 C 461.511719 929.578125 455.890625 937.972656 448.878906 944.984375 " fill-opacity="1" fill-rule="nonzero"/></g><g clip-path="url(#da0d3dac9b)"><path fill="#f7f7f7" d="M 503.019531 912.820312 C 501.625 919.878906 499.523438 926.8125 496.765625 933.464844 C 491.253906 946.773438 483.105469 958.925781 472.964844 969.066406 C 462.824219 979.207031 450.671875 987.359375 437.359375 992.871094 C 430.710938 995.628906 423.777344 997.726562 416.714844 999.125 C 409.65625 1000.523438 402.46875 1001.21875 395.332031 1001.222656 L 395.332031 999.496094 C 402.359375 999.488281 409.433594 998.804688 416.378906 997.429688 C 423.328125 996.054688 430.152344 993.984375 436.699219 991.273438 C 449.800781 985.847656 461.757812 977.828125 471.742188 967.84375 C 481.722656 957.863281 489.746094 945.902344 495.167969 932.800781 C 497.882812 926.257812 499.949219 919.433594 501.324219 912.484375 C 502.703125 905.535156 503.386719 898.460938 503.390625 891.433594 L 505.121094 891.433594 C 505.113281 898.574219 504.421875 905.757812 503.019531 912.820312 " fill-opacity="1" fill-rule="nonzero"/></g><g clip-path="url(#7cc96221eb)"><path fill="#f7f7f7" d="M 424.550781 920.652344 C 420.703125 924.5 416.105469 927.570312 411.136719 929.625 C 406.160156 931.6875 400.832031 932.746094 395.332031 932.757812 L 395.332031 931.027344 C 400.609375 931.015625 405.707031 930 410.472656 928.027344 C 415.230469 926.058594 419.640625 923.117188 423.328125 919.429688 C 427.015625 915.742188 429.957031 911.335938 431.925781 906.578125 C 433.898438 901.8125 434.914062 896.710938 434.925781 891.433594 L 436.652344 891.433594 C 436.640625 896.933594 435.582031 902.265625 433.519531 907.238281 C 431.464844 912.207031 428.398438 916.804688 424.550781 920.652344 " fill-opacity="1" fill-rule="nonzero"/></g><g clip-path="url(#6ad6ca2d64)"><path fill="#525252" d="M 395.859375 1003.394531 L 296.210938 1003.394531 L 296.210938 929.117188 L 395.859375 929.117188 L 395.859375 1003.394531 " fill-opacity="1" fill-rule="nonzero"/></g><g clip-path="url(#bda1541cb2)"><path fill="#f7f7f7" d="M 395.859375 967.285156 L 296.210938 967.285156 L 296.210938 965.222656 L 395.859375 965.222656 L 395.859375 967.285156 " fill-opacity="1" fill-rule="nonzero"/></g><g clip-path="url(#d11a7654d0)"><path fill="#f7f7f7" d="M 395.859375 933.070312 L 296.210938 933.070312 L 296.210938 931.351562 L 395.859375 931.351562 L 395.859375 933.070312 " fill-opacity="1" fill-rule="nonzero"/></g><g clip-path="url(#bdd21ad38c)"><path fill="#f7f7f7" d="M 395.859375 1001.160156 L 296.210938 1001.160156 L 296.210938 999.441406 L 395.859375 999.441406 L 395.859375 1001.160156 " fill-opacity="1" fill-rule="nonzero"/></g><g clip-path="url(#867626a962)"><g clip-path="url(#fc7043c571)"><path fill="#f7f7f7" d="M 290.8125 366.132812 L 301.164062 366.132812 L 301.164062 376.488281 L 290.8125 376.488281 Z M 290.8125 366.132812 " fill-opacity="1" fill-rule="nonzero"/></g></g><g clip-path="url(#2835b5ac87)"><g clip-path="url(#cfc15034f8)"><path fill="#f7f7f7" d="M 439.410156 69.664062 L 449.761719 69.664062 L 449.761719 80.019531 L 439.410156 80.019531 Z M 439.410156 69.664062 " fill-opacity="1" fill-rule="nonzero"/></g></g><g clip-path="url(#058c5128bf)"><g clip-path="url(#b7d9610b2b)"><path fill="#f7f7f7" d="M 390.769531 366.132812 L 401.121094 366.132812 L 401.121094 376.488281 L 390.769531 376.488281 Z M 390.769531 366.132812 " fill-opacity="1" fill-rule="nonzero"/></g></g><g clip-path="url(#386609715e)"><g clip-path="url(#a2890cc525)"><path fill="#f7f7f7" d="M 539.367188 69.664062 L 549.71875 69.664062 L 549.71875 80.019531 L 539.367188 80.019531 Z M 539.367188 69.664062 " fill-opacity="1" fill-rule="nonzero"/></g></g><g clip-path="url(#3d42edefc5)"><g clip-path="url(#231f7bbb1b)"><path fill="#f7f7f7" d="M 340.789062 366.132812 L 351.144531 366.132812 L 351.144531 376.488281 L 340.789062 376.488281 Z M 340.789062 366.132812 " fill-opacity="1" fill-rule="nonzero"/></g></g><g clip-path="url(#4a2e54e0bd)"><g clip-path="url(#88f2b8b6b1)"><path fill="#f7f7f7" d="M 489.386719 69.664062 L 499.742188 69.664062 L 499.742188 80.019531 L 489.386719 80.019531 Z M 489.386719 69.664062 " fill-opacity="1" fill-rule="nonzero"/></g></g><g clip-path="url(#82d7a06fdd)"><g clip-path="url(#0c3ba9468e)"><path fill="#f7f7f7" d="M 290.882812 960.871094 L 301.234375 960.871094 L 301.234375 971.222656 L 290.882812 971.222656 Z M 290.882812 960.871094 " fill-opacity="1" fill-rule="nonzero"/></g></g><g clip-path="url(#cfe395cb5d)"><g clip-path="url(#ba2c38d88c)"><path fill="#f7f7f7" d="M 390.839844 960.625 L 401.191406 960.625 L 401.191406 970.976562 L 390.839844 970.976562 Z M 390.839844 960.625 " fill-opacity="1" fill-rule="nonzero"/></g></g><g clip-path="url(#e57061d844)"><g clip-path="url(#c926b57b27)"><path fill="#f7f7f7" d="M 340.863281 960.871094 L 351.214844 960.871094 L 351.214844 971.222656 L 340.863281 971.222656 Z M 340.863281 960.871094 " fill-opacity="1" fill-rule="nonzero"/></g></g><g clip-path="url(#b7b7599cd9)"><g clip-path="url(#b2e72fbdc5)"><path fill="#f7f7f7" d="M 439.523438 663.710938 L 449.878906 663.710938 L 449.878906 674.0625 L 439.523438 674.0625 Z M 439.523438 663.710938 " fill-opacity="1" fill-rule="nonzero"/></g></g><g clip-path="url(#45423004d9)"><g clip-path="url(#be92cb8fc5)"><path fill="#f7f7f7" d="M 539.484375 663.710938 L 549.835938 663.710938 L 549.835938 674.0625 L 539.484375 674.0625 Z M 539.484375 663.710938 " fill-opacity="1" fill-rule="nonzero"/></g></g><g clip-path="url(#f91ef3b41e)"><g clip-path="url(#d9233e0805)"><path fill="#f7f7f7" d="M 489.503906 663.710938 L 499.855469 663.710938 L 499.855469 674.0625 L 489.503906 674.0625 Z M 489.503906 663.710938 " fill-opacity="1" fill-rule="nonzero"/></g></g></svg>