<?xml version="1.0" encoding="utf-8"?>
<!-- Generator: Adobe Illustrator 28.1.0, SVG Export Plug-In . SVG Version: 6.00 Build 0)  -->
<svg version="1.1" id="Layer_1" xmlns="http://www.w3.org/2000/svg" xmlns:xlink="http://www.w3.org/1999/xlink" x="0px" y="0px"
	 viewBox="0 0 24 24" style="enable-background:new 0 0 24 24;" xml:space="preserve">
<style type="text/css">
	.st0{fill:none;}
	.st1{fill:none;stroke:#000000;stroke-width:2;stroke-linecap:round;stroke-linejoin:round;}
</style>
<rect id="Rectangle" class="st0" width="24" height="24"/>
<line id="Path" class="st1" x1="1.5" y1="11.3" x2="22.5" y2="11.3"/>
<path id="Path_00000173161793513811753390000015107085503027833769_" class="st1" d="M21,17.2v2.2c0,0.4-0.3,0.8-0.8,0.8H18
	c-0.4,0-0.8-0.3-0.8-0.8v-2.2"/>
<path id="Path_00000120560086303624156760000004711620321425639810_" class="st1" d="M6.8,17.2v2.2c0,0.4-0.3,0.8-0.8,0.8H3.8
	c-0.4,0-0.8-0.3-0.8-0.8v-2.2"/>
<line id="Path_00000167367015197546284090000001900126240551689392_" class="st1" x1="6" y1="14.3" x2="7.5" y2="14.3"/>
<line id="Path_00000029036058510760272740000017818148018541123732_" class="st1" x1="16.5" y1="14.3" x2="18" y2="14.3"/>
<path id="Path_00000052081409653885266590000004479778072025440172_" class="st1" d="M21,11.2l-2.8-6.3c-0.1-0.3-0.4-0.4-0.7-0.4
	h-11c-0.3,0-0.6,0.2-0.7,0.4L3,11.2v6h18V11.2z"/>
</svg>
