<?xml version="1.0" encoding="UTF-8"?>
<!DOCTYPE svg PUBLIC "-//W3C//DTD SVG 1.1//EN" "http://www.w3.org/Graphics/SVG/1.1/DTD/svg11.dtd">
<svg xmlns="http://www.w3.org/2000/svg" version="1.1" width="512px" height="512px" style="shape-rendering:geometricPrecision; text-rendering:geometricPrecision; image-rendering:optimizeQuality; fill-rule:evenodd; clip-rule:evenodd" xmlns:xlink="http://www.w3.org/1999/xlink">
<g><path style="opacity:0.994" fill="#000000" d="M 27.5,47.5 C 179.5,47.3333 331.5,47.5 483.5,48C 493.333,51.1667 499.833,57.6667 503,67.5C 503.993,172.556 503.66,277.556 502,382.5C 498.345,390.822 492.178,396.322 483.5,399C 426.833,399.333 370.167,399.667 313.5,400C 315.482,407.742 317.149,415.575 318.5,423.5C 331.599,423.038 344.599,423.538 357.5,425C 358.126,425.75 358.626,426.584 359,427.5C 359.667,438.167 359.667,448.833 359,459.5C 358.626,460.416 358.126,461.25 357.5,462C 323.584,463.16 289.584,463.66 255.5,463.5C 221.416,463.66 187.416,463.16 153.5,462C 152.874,461.25 152.374,460.416 152,459.5C 151.333,448.833 151.333,438.167 152,427.5C 152.374,426.584 152.874,425.75 153.5,425C 166.401,423.538 179.401,423.038 192.5,423.5C 193.851,415.575 195.518,407.742 197.5,400C 140.833,399.667 84.1667,399.333 27.5,399C 18.8215,396.322 12.6549,390.822 9,382.5C 7.33993,277.556 7.00659,172.556 8,67.5C 11.3514,57.6498 17.8514,50.9831 27.5,47.5 Z M 35.5,63.5 C 182.167,63.3333 328.834,63.5 475.5,64C 482,65.1667 485.833,69 487,75.5C 487.5,162.166 487.667,248.833 487.5,335.5C 332.833,335.5 178.167,335.5 23.5,335.5C 23.3333,248.833 23.5,162.166 24,75.5C 25.348,68.9875 29.1813,64.9875 35.5,63.5 Z M 23.5,351.5 C 178.167,351.5 332.833,351.5 487.5,351.5C 487.863,359.571 487.363,367.571 486,375.5C 483.889,379.944 480.389,382.444 475.5,383C 328.833,383.667 182.167,383.667 35.5,383C 30.6107,382.444 27.1107,379.944 25,375.5C 23.6367,367.571 23.1367,359.571 23.5,351.5 Z M 214.5,399.5 C 241.833,399.5 269.167,399.5 296.5,399.5C 297.851,407.425 299.518,415.258 301.5,423C 270.833,423.667 240.167,423.667 209.5,423C 211.482,415.258 213.149,407.425 214.5,399.5 Z M 167.5,439.5 C 226.167,439.5 284.833,439.5 343.5,439.5C 343.5,442.167 343.5,444.833 343.5,447.5C 284.833,447.5 226.167,447.5 167.5,447.5C 167.5,444.833 167.5,442.167 167.5,439.5 Z"/></g>
<g><path style="opacity:0.95" fill="#000000" d="M 243.5,359.5 C 251.507,359.334 259.507,359.5 267.5,360C 269.333,360.5 270.5,361.667 271,363.5C 271.667,366.167 271.667,368.833 271,371.5C 270.5,373.333 269.333,374.5 267.5,375C 259.5,375.667 251.5,375.667 243.5,375C 240.484,373.471 239.151,370.971 239.5,367.5C 239.282,363.934 240.616,361.268 243.5,359.5 Z"/></g>
</svg>
