<?xml version="1.0" encoding="UTF-8"?>
<svg width="24px" height="24px" viewBox="0 0 24 24" version="1.1" xmlns="http://www.w3.org/2000/svg" xmlns:xlink="http://www.w3.org/1999/xlink">
    <title>bathtub</title>
    <g id="DESKTOP" stroke="none" stroke-width="1" fill="none" fill-rule="evenodd">
        <g id="Modulis_Lund_Pilna" transform="translate(-1244.000000, -747.000000)">
            <g id="bathtub" transform="translate(1244.000000, 747.000000)">
                <rect id="Rectangle" x="0" y="0" width="24" height="24"></rect>
                <line x1="6.76979167" y1="18" x2="6.76979167" y2="20.25" id="Path" stroke="#3F3F3F" stroke-width="2" stroke-linecap="round" stroke-linejoin="round"></line>
                <line x1="17.2697917" y1="18" x2="17.2697917" y2="20.25" id="Path" stroke="#3F3F3F" stroke-width="2" stroke-linecap="round" stroke-linejoin="round"></line>
                <path d="M5.25,9.75 L5.25,4.875 C5.25,3.83946609 6.08946609,3 7.125,3 C8.16053391,3 9,3.83946609 9,4.875" id="Path" stroke="#3F3F3F" stroke-width="2" stroke-linecap="round" stroke-linejoin="round"></path>
                <rect id="Rectangle" stroke="#3F3F3F" stroke-width="2" stroke-linecap="round" stroke-linejoin="round" x="12.75" y="9" width="6" height="4.5"></rect>
                <path d="M18.75,9.75 L21.75,9.75 C22.1642136,9.75 22.5,10.0857864 22.5,10.5 L22.5,13.5 C22.5,15.9852814 20.4852814,18 18,18 L6,18 C3.51471863,18 1.5,15.9852814 1.5,13.5 L1.5,10.5 C1.5,10.0857864 1.83578644,9.75 2.25,9.75 L12.75,9.75" id="Path" stroke="#3F3F3F" stroke-width="2" stroke-linecap="round" stroke-linejoin="round"></path>
            </g>
        </g>
    </g>
</svg>