<?xml version="1.0" encoding="UTF-8"?>
<svg width="24px" height="26px" viewBox="0 0 24 26" version="1.1" xmlns="http://www.w3.org/2000/svg" xmlns:xlink="http://www.w3.org/1999/xlink">
    <title>Shape</title>
    <g id="Page-1" stroke="none" stroke-width="1" fill="none" fill-rule="evenodd">
        <g id="calendar-check" fill="#FFFFFF" fill-rule="nonzero">
            <path d="M22,2 L19,2 L19,1 C19,0.44771525 18.5522847,0 18,0 C17.4477153,0 17,0.44771525 17,1 L17,2 L7,2 L7,1 C7,0.44771525 6.55228475,0 6,0 C5.44771525,0 5,0.44771525 5,1 L5,2 L2,2 C0.8954305,2 0,2.8954305 0,4 L0,24 C0,25.1045695 0.8954305,26 2,26 L22,26 C23.1045695,26 24,25.1045695 24,24 L24,4 C24,2.8954305 23.1045695,2 22,2 Z M5,4 L5,5 C5,5.55228475 5.44771525,6 6,6 C6.55228475,6 7,5.55228475 7,5 L7,4 L17,4 L17,5 C17,5.55228475 17.4477153,6 18,6 C18.5522847,6 19,5.55228475 19,5 L19,4 L22,4 L22,8 L2,8 L2,4 L5,4 Z M22,24 L2,24 L2,10 L22,10 L22,24 Z M17.2075,13.2925 C17.395277,13.4800683 17.5007867,13.7345908 17.5007867,14 C17.5007867,14.2654092 17.395277,14.5199317 17.2075,14.7075 L11.2075,20.7075 C11.0199317,20.895277 10.7654092,21.0007867 10.5,21.0007867 C10.2345908,21.0007867 9.98006826,20.895277 9.7925,20.7075 L6.7925,17.7075 C6.40175854,17.3167585 6.40175854,16.6832415 6.7925,16.2925 C7.18324146,15.9017585 7.81675854,15.9017585 8.2075,16.2925 L10.5,18.58625 L15.7925,13.2925 C15.9800683,13.104723 16.2345908,12.9992133 16.5,12.9992133 C16.7654092,12.9992133 17.0199317,13.104723 17.2075,13.2925 Z" id="Shape"></path>
        </g>
    </g>
</svg>