<?xml version="1.0" encoding="UTF-8"?>
<svg width="26px" height="26px" viewBox="0 0 26 26" version="1.1" xmlns="http://www.w3.org/2000/svg" xmlns:xlink="http://www.w3.org/1999/xlink">
    <title>Shape</title>
    <g id="Page-1" stroke="none" stroke-width="1" fill="none" fill-rule="evenodd">
        <g id="clock" fill="#FFFFFF" fill-rule="nonzero">
            <path d="M13,-8.8817842e-16 C5.82029825,-8.8817842e-16 8.8817842e-16,5.82029825 8.8817842e-16,13 C8.8817842e-16,20.1797017 5.82029825,26 13,26 C20.1797017,26 26,20.1797017 26,13 C25.9924214,5.82343974 20.1765603,0.00757857522 13,-8.8817842e-16 Z M13,24 C6.92486775,24 2,19.0751322 2,13 C2,6.92486775 6.92486775,2 13,2 C19.0751322,2 24,6.92486775 24,13 C23.9931114,19.0722766 19.0722766,23.9931114 13,24 Z M21,13 C21,13.5522847 20.5522847,14 20,14 L13,14 C12.4477153,14 12,13.5522847 12,13 L12,6 C12,5.44771525 12.4477153,5 13,5 C13.5522847,5 14,5.44771525 14,6 L14,12 L20,12 C20.5522847,12 21,12.4477153 21,13 Z" id="Shape"></path>
        </g>
    </g>
</svg>