<?xml version="1.0" encoding="UTF-8"?>
<svg width="22px" height="28px" viewBox="0 0 22 28" version="1.1" xmlns="http://www.w3.org/2000/svg" xmlns:xlink="http://www.w3.org/1999/xlink">
    <title>Shape</title>
    <g id="Page-1" stroke="none" stroke-width="1" fill="none" fill-rule="evenodd">
        <g id="map-pin-line-3" fill="#FFFFFF" fill-rule="nonzero">
            <path d="M20,26 L13.8175,26 C14.8560669,25.0726583 15.8354871,24.081131 16.75,23.03125 C20.18125,19.085 22,14.925 22,11 C22,4.92486775 17.0751322,1.77635684e-15 11,1.77635684e-15 C4.92486775,1.77635684e-15 0,4.92486775 0,11 C0,14.925 1.81375,19.085 5.25,23.03125 C6.16451288,24.081131 7.14393307,25.0726583 8.1825,26 L2,26 C1.44771525,26 1,26.4477153 1,27 C1,27.5522847 1.44771525,28 2,28 L20,28 C20.5522847,28 21,27.5522847 21,27 C21,26.4477153 20.5522847,26 20,26 Z M2,11 C2,6.02943725 6.02943725,2 11,2 C15.9705627,2 20,6.02943725 20,11 C20,18.15375 13.06625,24.125 11,25.75 C8.93375,24.125 2,18.15375 2,11 Z M16,11 C16,8.23857625 13.7614237,6 11,6 C8.23857625,6 6,8.23857625 6,11 C6,13.7614237 8.23857625,16 11,16 C13.7614237,16 16,13.7614237 16,11 Z M8,11 C8,9.34314575 9.34314575,8 11,8 C12.6568542,8 14,9.34314575 14,11 C14,12.6568542 12.6568542,14 11,14 C9.34314575,14 8,12.6568542 8,11 Z" id="Shape"></path>
        </g>
    </g>
</svg>