<?xml version="1.0" encoding="UTF-8"?>
<svg width="72px" height="52px" viewBox="0 0 72 52" version="1.1" xmlns="http://www.w3.org/2000/svg" xmlns:xlink="http://www.w3.org/1999/xlink">
    <title>bed copy</title>
    <g id="DESKTOP" stroke="none" stroke-width="1" fill="none" fill-rule="evenodd">
        <g id="Desktop_home-Copy-3" transform="translate(-853.000000, -1154.000000)" fill="#3F3F3F" fill-rule="nonzero">
            <g id="bed-copy" transform="translate(853.000000, 1154.000000)">
                <path d="M60,9.45454545 L4.8,9.45454545 L4.8,2.36363636 C4.8,1.05823605 3.7254834,0 2.4,0 C1.0745166,0 0,1.05823605 0,2.36363636 L0,49.6363636 C0,50.941764 1.0745166,52 2.4,52 C3.7254834,52 4.8,50.941764 4.8,49.6363636 L4.8,40.1818182 L67.2,40.1818182 L67.2,49.6363636 C67.2,50.941764 68.2745166,52 69.6,52 C70.9254834,52 72,50.941764 72,49.6363636 L72,21.2727273 C72,14.7457257 66.627417,9.45454545 60,9.45454545 Z M4.8,14.1818182 L26.4,14.1818182 L26.4,35.4545455 L4.8,35.4545455 L4.8,14.1818182 Z M31.2,35.4545455 L31.2,14.1818182 L60,14.1818182 C63.9764502,14.1818182 67.2,17.3565263 67.2,21.2727273 L67.2,35.4545455 L31.2,35.4545455 Z" id="Shape"></path>
            </g>
        </g>
    </g>
</svg>