<?xml version="1.0" encoding="UTF-8"?>
<svg width="87px" height="63px" viewBox="0 0 87 63" version="1.1" xmlns="http://www.w3.org/2000/svg" xmlns:xlink="http://www.w3.org/1999/xlink">
    <title>bed copy</title>
    <g id="DESKTOP" stroke="none" stroke-width="1" fill="none" fill-rule="evenodd">
        <g id="Desktop_home-Copy-2" transform="translate(-397.000000, -1925.000000)" fill="#3F3F3F" fill-rule="nonzero">
            <g id="bed-copy" transform="translate(397.000000, 1925.000000)">
                <path d="M72.5,11.4545455 L5.8,11.4545455 L5.8,2.86363636 C5.8,1.28209367 4.50162577,0 2.9,0 C1.29837423,0 0,1.28209367 0,2.86363636 L0,60.1363636 C0,61.7179063 1.29837423,63 2.9,63 C4.50162577,63 5.8,61.7179063 5.8,60.1363636 L5.8,48.6818182 L81.2,48.6818182 L81.2,60.1363636 C81.2,61.7179063 82.4983742,63 84.1,63 C85.7016258,63 87,61.7179063 87,60.1363636 L87,25.7727273 C87,17.8650138 80.5081289,11.4545455 72.5,11.4545455 Z M5.8,17.1818182 L31.9,17.1818182 L31.9,42.9545455 L5.8,42.9545455 L5.8,17.1818182 Z M37.7,42.9545455 L37.7,17.1818182 L72.5,17.1818182 C77.3048773,17.1818182 81.2,21.0280992 81.2,25.7727273 L81.2,42.9545455 L37.7,42.9545455 Z" id="Shape"></path>
            </g>
        </g>
    </g>
</svg>