<?xml version="1.0" encoding="UTF-8"?>
<svg width="76px" height="58px" viewBox="0 0 76 58" version="1.1" xmlns="http://www.w3.org/2000/svg" xmlns:xlink="http://www.w3.org/1999/xlink">
    <title>cardholder copy 2</title>
    <g id="DESKTOP" stroke="none" stroke-width="1" fill="none" fill-rule="evenodd">
        <g id="Desktop_home-Copy-3" transform="translate(-1192.000000, -963.000000)" fill="#3F3F3F" fill-rule="nonzero">
            <g id="cardholder-copy-2" transform="translate(1192.000000, 963.000000)">
                <path d="M67.2307692,0 L8.76923077,0 C3.92611835,0 0,3.89512268 0,8.7 L0,49.3 C0,54.1048773 3.92611835,58 8.76923077,58 L67.2307692,58 C72.0738817,58 76,54.1048773 76,49.3 L76,8.7 C76,3.89512268 72.0738817,0 67.2307692,0 Z M5.84615385,17.4 L70.1538462,17.4 L70.1538462,23.2 L52.3194231,23.2 C49.5411813,23.2015113 47.1477578,25.1426539 46.5938462,27.843625 C45.7497769,31.8816771 42.1640925,34.7770185 38.0073077,34.7770185 C33.8505229,34.7770185 30.2648385,31.8816771 29.4207692,27.843625 C28.8657669,25.1373106 26.4643089,23.1946109 23.6805769,23.2 L5.84615385,23.2 L5.84615385,17.4 Z M8.76923077,5.8 L67.2307692,5.8 C68.84514,5.8 70.1538462,7.09837423 70.1538462,8.7 L70.1538462,11.6 L5.84615385,11.6 L5.84615385,8.7 C5.84615385,7.09837423 7.15485996,5.8 8.76923077,5.8 Z M67.2307692,52.2 L8.76923077,52.2 C7.15485996,52.2 5.84615385,50.9016258 5.84615385,49.3 L5.84615385,29 L23.6769231,29 C25.0636855,35.7537295 31.0508862,40.6056248 37.9981731,40.6056248 C44.9454599,40.6056248 50.9326607,35.7537295 52.3194231,29 L70.1538462,29 L70.1538462,49.3 C70.1538462,50.9016258 68.84514,52.2 67.2307692,52.2 Z" id="Shape"></path>
            </g>
        </g>
    </g>
</svg>