<?xml version="1.0" encoding="UTF-8"?>
<svg width="72px" height="75px" viewBox="0 0 72 75" version="1.1" xmlns="http://www.w3.org/2000/svg" xmlns:xlink="http://www.w3.org/1999/xlink">
    <title>house</title>
    <g id="DESKTOP" stroke="none" stroke-width="1" fill="none" fill-rule="evenodd">
        <g id="Desktop_home-Copy-2" transform="translate(-919.000000, -1627.000000)" fill="#3F3F3F" fill-rule="nonzero">
            <g id="house" transform="translate(919.000000, 1627.000000)">
                <path d="M70.0612501,29.9073717 L40.0612501,1.60237174 C40.0465769,1.58957703 40.0327948,1.57579495 40.0200001,1.56112174 C37.7312233,-0.520373912 34.2350269,-0.520373912 31.9462501,1.56112174 L31.9050001,1.60237174 L1.93875007,29.9073717 C0.702919126,31.0437735 0,32.6459772 0,34.3248717 L0,68.9936217 C0,72.3073302 2.68629157,74.9936217 6,74.9936217 L24,74.9936217 C27.3137086,74.9936217 30,72.3073302 30,68.9936217 L30,50.9936217 L42,50.9936217 L42,68.9936217 C42,72.3073302 44.6862916,74.9936217 48,74.9936217 L66,74.9936217 C69.3137086,74.9936217 72,72.3073302 72,68.9936217 L72,34.3248717 C72,32.6459772 71.297081,31.0437735 70.0612501,29.9073717 Z M66.0000001,68.9936217 L48.0000001,68.9936217 L48.0000001,50.9936217 C48.0000001,47.6799132 45.3137086,44.9936217 42.0000001,44.9936217 L30.0000001,44.9936217 C26.6862916,44.9936217 24.0000001,47.6799132 24.0000001,50.9936217 L24.0000001,68.9936217 L6.00000007,68.9936217 L6.00000007,34.3248717 L6.04125007,34.2873717 L36.0000001,5.99362174 L65.9625001,34.2798717 L66.0037501,34.3173717 L66.0000001,68.9936217 Z" id="Shape"></path>
            </g>
        </g>
    </g>
</svg>