<?xml version="1.0" encoding="UTF-8"?>
<svg width="56px" height="56px" viewBox="0 0 56 56" version="1.1" xmlns="http://www.w3.org/2000/svg" xmlns:xlink="http://www.w3.org/1999/xlink">
    <title>key</title>
    <g id="DESKTOP" stroke="none" stroke-width="1" fill="none" fill-rule="evenodd">
        <g id="Desktop_home-Copy-3" transform="translate(-1209.000000, -1339.000000)" fill="#3F3F3F" fill-rule="nonzero">
            <g id="key" transform="translate(1209.000000, 1339.000000)">
                <path d="M35.2713642,0 C28.6289275,0.00595402308 22.3901758,3.18810023 18.4870945,8.56100752 C14.5840131,13.9339148 13.4876625,20.8491305 15.537555,27.1651852 L0.606875574,42.0881481 C0.217876895,42.4774458 0,43.0053114 0,43.5555556 L0,53.9259259 C0,55.0714054 0.928914016,56 2.07478673,56 L12.4487172,56 C13.5945899,56 14.5235033,55.0714054 14.5235033,53.9259259 L14.5235033,49.7777778 L18.6730755,49.7777778 C19.8189482,49.7777778 20.7478616,48.8491832 20.7478616,47.7037037 L20.7478616,43.5555556 L24.8974337,43.5555556 C25.4478668,43.5559882 25.9759136,43.3377541 26.3653449,42.9488889 L28.8447143,40.4677778 C36.6358255,42.9964733 45.1859363,40.706004 50.6681089,34.6215592 C56.1502815,28.5371145 57.5381636,19.797802 54.2105539,12.3152441 C50.8829443,4.8326862 43.462826,0.00774018027 35.2713642,0 Z M35.2713642,37.3333333 C33.1710722,37.3368798 31.0893676,36.9400398 29.1377778,36.1640741 C28.356568,35.8251478 27.447511,35.9978505 26.8451392,36.5996296 L24.038991,39.4074074 L18.6730755,39.4074074 C17.5272027,39.4074074 16.5982894,40.336002 16.5982894,41.4814815 L16.5982894,45.6296296 L12.4487172,45.6296296 C11.3028445,45.6296296 10.3739311,46.5582242 10.3739311,47.7037037 L10.3739311,51.8518519 L4.14957282,51.8518519 L4.14957282,44.4137037 L19.407031,29.1640741 C20.0090168,28.561909 20.1817788,27.6531639 19.8427361,26.8722222 C17.1492742,20.1016025 19.1895874,12.366613 24.8725036,7.80397391 C30.5554197,3.24133477 38.5510382,2.91878248 44.5832528,7.00881999 C50.6154674,11.0988575 53.2726357,18.6443452 51.1336875,25.6099098 C48.9947394,32.5754744 42.5602257,37.3310532 35.2713642,37.3333333 L35.2713642,37.3333333 Z M43.5705085,15.5555556 C43.5705085,17.2737748 42.1771385,18.6666667 40.4583294,18.6666667 C38.7395203,18.6666667 37.3461503,17.2737748 37.3461503,15.5555556 C37.3461503,13.8373363 38.7395203,12.4444444 40.4583294,12.4444444 C42.1771385,12.4444444 43.5705085,13.8373363 43.5705085,15.5555556 Z" id="Shape"></path>
            </g>
        </g>
    </g>
</svg>