<?xml version="1.0" encoding="UTF-8"?>
<svg width="44px" height="56px" viewBox="0 0 44 56" version="1.1" xmlns="http://www.w3.org/2000/svg" xmlns:xlink="http://www.w3.org/1999/xlink">
    <title>map-pin-line copy</title>
    <g id="DESKTOP" stroke="none" stroke-width="1" fill="none" fill-rule="evenodd">
        <g id="Desktop_home-Copy-3" transform="translate(-868.000000, -1337.000000)" fill="#3F3F3F" fill-rule="nonzero">
            <g id="map-pin-line-copy" transform="translate(868.000000, 1337.000000)">
                <path d="M40,52 L27.635,52 C29.7121339,50.1453165 31.6709742,48.162262 33.5,46.0625 C40.3625,38.17 44,29.85 44,22 C44,9.8497355 34.1502645,0 22,0 C9.8497355,0 0,9.8497355 0,22 C0,29.85 3.6275,38.17 10.5,46.0625 C12.3290258,48.162262 14.2878661,50.1453165 16.365,52 L4,52 C2.8954305,52 2,52.8954305 2,54 C2,55.1045695 2.8954305,56 4,56 L40,56 C41.1045695,56 42,55.1045695 42,54 C42,52.8954305 41.1045695,52 40,52 Z M4,22 C4,12.0588745 12.0588745,4 22,4 C31.9411255,4 40,12.0588745 40,22 C40,36.3075 26.1325,48.25 22,51.5 C17.8675,48.25 4,36.3075 4,22 Z M32,22 C32,16.4771525 27.5228475,12 22,12 C16.4771525,12 12,16.4771525 12,22 C12,27.5228475 16.4771525,32 22,32 C27.5228475,32 32,27.5228475 32,22 Z M16,22 C16,18.6862915 18.6862915,16 22,16 C25.3137085,16 28,18.6862915 28,22 C28,25.3137085 25.3137085,28 22,28 C18.6862915,28 16,25.3137085 16,22 Z" id="Shape"></path>
            </g>
        </g>
    </g>
</svg>