<?xml version="1.0" encoding="UTF-8"?>
<svg width="28px" height="35px" viewBox="0 0 28 35" version="1.1" xmlns="http://www.w3.org/2000/svg" xmlns:xlink="http://www.w3.org/1999/xlink">
    <title>map-pin-line</title>
    <g id="DESKTOP" stroke="none" stroke-width="1" fill="none" fill-rule="evenodd">
        <g id="Desktop_home-Copy-3" transform="translate(-1025.000000, -740.000000)" fill="#FFFFFF" fill-rule="nonzero">
            <g id="map-pin-line" transform="translate(1025.000000, 740.000000)">
                <path d="M25,32.5 L17.271875,32.5 C18.5700837,31.3408228 19.7943589,30.1014138 20.9375,28.7890625 C25.2265625,23.85625 27.5,18.65625 27.5,13.75 C27.5,6.15608469 21.3439153,0 13.75,0 C6.15608469,0 0,6.15608469 0,13.75 C0,18.65625 2.2671875,23.85625 6.5625,28.7890625 C7.7056411,30.1014138 8.92991634,31.3408228 10.228125,32.5 L2.5,32.5 C1.80964406,32.5 1.25,33.0596441 1.25,33.75 C1.25,34.4403559 1.80964406,35 2.5,35 L25,35 C25.6903559,35 26.25,34.4403559 26.25,33.75 C26.25,33.0596441 25.6903559,32.5 25,32.5 Z M2.5,13.75 C2.5,7.53679656 7.53679656,2.5 13.75,2.5 C19.9632034,2.5 25,7.53679656 25,13.75 C25,22.6921875 16.3328125,30.15625 13.75,32.1875 C11.1671875,30.15625 2.5,22.6921875 2.5,13.75 Z M20,13.75 C20,10.2982203 17.2017797,7.5 13.75,7.5 C10.2982203,7.5 7.5,10.2982203 7.5,13.75 C7.5,17.2017797 10.2982203,20 13.75,20 C17.2017797,20 20,17.2017797 20,13.75 Z M10,13.75 C10,11.6789322 11.6789322,10 13.75,10 C15.8210678,10 17.5,11.6789322 17.5,13.75 C17.5,15.8210678 15.8210678,17.5 13.75,17.5 C11.6789322,17.5 10,15.8210678 10,13.75 Z" id="Shape"></path>
            </g>
        </g>
    </g>
</svg>